<?xml version="1.0" encoding="UTF-8"?>
<svg version="1.1" xmlns="http://www.w3.org/2000/svg" width="128" height="129">
<path d="M0 0 C1.14404297 0.00161133 2.28808594 0.00322266 3.46679688 0.00488281 C12.98045848 0.14140412 21.4648555 1.47769668 30.5 4.375 C31.45777344 4.65214844 32.41554688 4.92929687 33.40234375 5.21484375 C40.35807965 7.54056746 45.5913217 11.99032866 50.5 17.375 C52.28801208 22.73903624 52.56770616 28.59042234 50.5234375 33.921875 C41.36113909 50.67258006 22.18851572 58.19610096 4.9375 64.375 C3.68851929 64.82939453 3.68851929 64.82939453 2.41430664 65.29296875 C-2.30779467 66.91769579 -6.4501777 68.08821576 -11.5 67.375 C-16.66825362 62.88934591 -16.19666391 54.02026301 -16.7265625 47.65234375 C-16.97993388 40.38519179 -15.5059649 33.79256983 -11.8125 27.5 C-4.36207885 20.65366705 3.3194428 20.73321761 13 20.625 C14.299375 20.59535156 15.59875 20.56570312 16.9375 20.53515625 C20.12506106 20.4648424 23.31190682 20.41195232 26.5 20.375 C18.70952018 18.44641905 11.12853579 17.04618837 3.125 16.5 C2.38910645 16.4388501 1.65321289 16.3777002 0.89501953 16.31469727 C-4.62669259 16.01069848 -8.42586921 17.19105934 -13.5 19.375 C-14.49 19.705 -15.48 20.035 -16.5 20.375 C-17.61935073 22.02130193 -17.61935073 22.02130193 -18.5 24.375 C-18.74878906 24.97957031 -18.99757813 25.58414063 -19.25390625 26.20703125 C-26.45095644 44.3908827 -21.75487894 66.20428748 -16.171875 84.30859375 C-15.48394405 87.44827863 -15.60921223 89.32005478 -16.5 92.375 C-26.31223706 88.71470483 -34.12357983 70.49149703 -38.5 61.375 C-44.2072315 48.73225394 -47.33933236 34.90257022 -43.64453125 21.203125 C-39.78620154 12.51200688 -32.54162454 7.56744595 -24.28515625 3.41796875 C-16.29050575 0.42417957 -8.48369709 -0.01245405 0 0 Z " fill="#C60C25" transform="translate(60.5,19.625)"/>
</svg>
