<?xml version="1.0" encoding="UTF-8"?>
<svg version="1.1" xmlns="http://www.w3.org/2000/svg" width="512" height="512">
<path d="M0 0 C168.96 0 337.92 0 512 0 C512 168.96 512 337.92 512 512 C343.04 512 174.08 512 0 512 C0 343.04 0 174.08 0 0 Z " fill="#FEFEFE" transform="translate(0,0)"/>
<path d="M0 0 C1.28092433 0.55803982 2.56219756 1.11527918 3.84375 1.671875 C19.51642488 8.61581486 34.17293103 17.59351848 47 29 C47.81210937 29.70382813 48.62421875 30.40765625 49.4609375 31.1328125 C52.01519431 33.3808808 54.51461209 35.67604967 57 38 C57.93585938 38.87011719 58.87171875 39.74023438 59.8359375 40.63671875 C72.79645569 52.9709799 83.03457068 67.58024629 92 83 C92.35400879 83.60489258 92.70801758 84.20978516 93.07275391 84.83300781 C101.4071541 99.2490562 107.6134434 114.95162219 112 131 C112.27457031 131.96679688 112.54914063 132.93359375 112.83203125 133.9296875 C116.55240973 147.74823616 117.37936533 161.46227693 117.3125 175.6875 C117.31100952 176.47448273 117.30951904 177.26146545 117.3079834 178.07229614 C117.21776622 204.61735564 110.97527972 226.93880985 100 251 C94.46460949 246.36719546 89.38081555 241.45597558 84.33789062 236.29882812 C81.50727854 233.43009332 78.65292182 230.67150052 75.57202148 228.07202148 C70.13848661 223.34032614 65.10096265 218.21266616 60.02770996 213.10287476 C58.21264434 211.27487821 56.39432699 209.45017044 54.57519531 207.6262207 C50.06068084 203.09843857 45.55166663 198.56519193 41.04248047 194.03210449 C37.22054384 190.19033661 33.39649624 186.35069298 29.56970215 182.51376343 C27.79079745 180.72844455 26.01496604 178.94010861 24.23925781 177.15161133 C19.1722291 172.06192776 14.08490096 167.05800164 8.61660767 162.39398193 C6.44997573 160.52572049 4.4451089 158.52487092 2.44921875 156.4765625 C1.67376709 155.68733398 0.89831543 154.89810547 0.09936523 154.08496094 C-0.69655029 153.27317383 -1.49246582 152.46138672 -2.3125 151.625 C-8.91604829 144.96221278 -15.45876445 138.60347126 -23 133 C-23.77730469 132.39414063 -24.55460938 131.78828125 -25.35546875 131.1640625 C-36.44032396 122.88206628 -48.38298584 118.14831534 -62 116 C-63.7325 115.72542969 -63.7325 115.72542969 -65.5 115.4453125 C-88.65235083 112.49958929 -108.90035235 120.02479745 -127 134 C-140.22551404 144.48283401 -151.89291691 156.66288585 -163.7581358 168.62121105 C-166.68100439 171.56427062 -169.61055778 174.50065965 -172.53961182 177.43756104 C-179.94909155 184.86905866 -187.34994207 192.30912225 -194.75 199.75 C-202.78363933 207.82777416 -210.81882973 215.90397381 -218.86371446 223.97055078 C-222.34497519 227.46178066 -225.82130347 230.95782717 -229.29393911 234.4576354 C-231.44329608 236.62185377 -233.59673744 238.7819716 -235.75133896 240.94096756 C-236.75206611 241.94545338 -237.75105564 242.95167362 -238.74821091 243.95970535 C-240.10406212 245.32988546 -241.4666042 246.69343523 -242.82952881 248.05657959 C-243.97200891 249.20572153 -243.97200891 249.20572153 -245.13756943 250.37807846 C-247 252 -247 252 -249 252 C-252.82209277 242.78875643 -256.30118846 233.61603573 -259 224 C-259.26554687 223.07316406 -259.53109375 222.14632812 -259.8046875 221.19140625 C-260.62522351 218.14188838 -261.33017917 215.08621748 -262 212 C-262.28101563 210.74058594 -262.56203125 209.48117187 -262.8515625 208.18359375 C-267.31282299 185.95160294 -266.51622601 161.13661963 -262 139 C-261.75056641 137.72672852 -261.75056641 137.72672852 -261.49609375 136.42773438 C-255.06158157 104.32666804 -240.35370114 75.71314417 -219 51 C-218.31808594 50.195625 -217.63617188 49.39125 -216.93359375 48.5625 C-186.23185273 13.28094126 -142.29569994 -9.75864818 -95.59375 -13.76855469 C-63.01097849 -15.86695601 -30.04786961 -13.80987947 0 0 Z " fill="#B72631" transform="translate(331,84)"/>
<path d="M0 0 C1.04816895 0.00499512 2.09633789 0.00999023 3.17626953 0.01513672 C21.80644494 0.42952166 34.97397764 7.93654153 48.375 20.5 C48.97641815 21.02429092 49.5778363 21.54858185 50.19747925 22.08876038 C58.50042356 29.36751443 66.21883921 37.22986149 74.0034523 45.05328751 C76.6168129 47.67954234 79.23339892 50.3025461 81.85079956 52.92477417 C87.87439528 58.96069524 93.8932804 65.00130385 99.91194153 71.04214478 C105.88241292 77.03449359 111.85490778 83.02480907 117.83080673 89.01174545 C120.39856306 91.58594574 122.96327026 94.16315709 125.52786255 96.74050903 C127.11233854 98.32861979 128.69695636 99.91658906 130.28173828 101.50439453 C130.98532471 102.21314728 131.68891113 102.92190002 132.41381836 103.65213013 C137.69988185 108.93875007 143.25431146 113.84005239 148.94140625 118.6875 C149.60011719 119.285625 150.25882812 119.88375 150.9375 120.5 C151.61941406 121.098125 152.30132812 121.69625 153.00390625 122.3125 C154.375 124.5 154.375 124.5 154.33984375 127.91796875 C153.28297965 131.84163021 152.03207222 133.77255105 149.375 136.8125 C148.55386719 137.76125 147.73273438 138.71 146.88671875 139.6875 C145.64341797 141.0796875 145.64341797 141.0796875 144.375 142.5 C143.68019531 143.304375 142.98539062 144.10875 142.26953125 144.9375 C140.0181147 147.50572 137.71189273 150.00922306 135.375 152.5 C134.63902588 153.28697266 134.63902588 153.28697266 133.88818359 154.08984375 C109.34132655 180.11687553 79.39834228 195.53313708 45.375 205.5 C44.27800781 205.82871094 43.18101562 206.15742188 42.05078125 206.49609375 C39.17014879 207.28919227 36.30763999 207.92645786 33.375 208.5 C32.69872559 208.63390137 32.02245117 208.76780273 31.32568359 208.90576172 C19.64848289 211.1263032 8.10967109 211.77360504 -3.75 211.75 C-4.7529007 211.74883682 -4.7529007 211.74883682 -5.77606201 211.74765015 C-16.99547638 211.70984121 -16.99547638 211.70984121 -20.625 210.5 C-22.31963165 210.32656667 -24.01469561 210.15634241 -25.71166992 210.00756836 C-73.78838993 205.54350104 -118.64046481 178.75819703 -149.48828125 142.17578125 C-155.70061029 134.42411405 -155.70061029 134.42411405 -155.42675209 131.07700062 C-154.49971863 128.0973192 -153.41597836 126.79948272 -151.21102905 124.61174011 C-150.47932495 123.87598251 -149.74762085 123.14022491 -148.9937439 122.38217163 C-148.1854715 121.58985138 -147.3771991 120.79753113 -146.54443359 119.98120117 C-145.27360931 118.71191017 -145.27360931 118.71191017 -143.97711182 117.41697693 C-141.65324427 115.09964277 -139.32077182 112.7914028 -136.98436689 110.48672271 C-134.53514455 108.06629468 -132.0976955 105.63407124 -129.65908813 103.20295715 C-125.03217934 98.59364694 -120.39560456 93.99419516 -115.75510561 89.39857131 C-108.96681532 82.67526128 -102.19086675 75.93953134 -95.41758156 69.20110798 C-94.91863581 68.70473164 -94.41969006 68.20835531 -93.90562475 67.69693726 C-92.90966537 66.70607799 -91.91373988 65.71518464 -90.91784918 64.72425634 C-87.55275865 61.3767617 -84.1819499 58.03511148 -80.80941772 54.69511414 C-79.03353383 52.93245983 -77.25770301 51.16975205 -75.48193359 49.40698242 C-74.68580658 48.62073486 -73.88967957 47.8344873 -73.06942749 47.02441406 C-68.93259634 42.91192998 -64.96598497 38.72037523 -61.17637062 34.28476429 C-44.99305225 15.66677041 -25.76799678 -0.16227222 0 0 Z " fill="#878D97" transform="translate(258.625,234.5)"/>
<path d="M0 0 C0.33 0 0.66 0 1 0 C1 11.55 1 23.1 1 35 C-10.55 35 -22.1 35 -34 35 C-31.21381889 33.60690945 -28.48324069 32.33849868 -25.625 31.125 C-12.70155562 25.3601302 -6.45374118 16.64836583 -1 4 C-0.31097173 1.73023913 -0.31097173 1.73023913 0 0 Z " fill="#000000" transform="translate(511,477)"/>
<path d="M0 0 C1.39309055 2.78618111 2.66150132 5.51675931 3.875 8.375 C9.75132893 21.54830881 18.30045535 27.13748182 31 33 C32.32 33.66 33.64 34.32 35 35 C23.45 35 11.9 35 0 35 C0 23.45 0 11.9 0 0 Z " fill="#000000" transform="translate(0,477)"/>
<path d="M0 0 C11.55 0 23.1 0 35 0 C35 11.55 35 23.1 35 35 C33.60690945 32.21381889 32.33849868 29.48324069 31.125 26.625 C25.24867107 13.45169119 16.69954465 7.86251818 4 2 C2.68 1.34 1.36 0.68 0 0 Z " fill="#000000" transform="translate(477,0)"/>
<path d="M0 0 C11.55 0 23.1 0 35 0 C32.21381889 1.39309055 29.48324069 2.66150132 26.625 3.875 C13.45169119 9.75132893 7.86251818 18.30045535 2 31 C1.34 32.32 0.68 33.64 0 35 C0 23.45 0 11.9 0 0 Z " fill="#000000" transform="translate(0,0)"/>
</svg>
