<svg xmlns="http://www.w3.org/2000/svg" width="1467" height="1828" viewBox="0 0 1467 1828" version="1.1"><path d="M 731.989 4.750 C 731.984 6.813, 730.237 38.425, 728.109 75 C 725.980 111.575, 724.160 146.450, 724.064 152.500 C 723.967 158.550, 723.473 170.025, 722.965 178 C 721.444 201.876, 721.631 206.461, 724.250 209.497 C 727.548 213.321, 734.157 214.580, 738.852 212.280 C 746.838 208.366, 746.841 213.883, 738.777 74.250 C 735.518 17.827, 734.254 1, 733.273 1 C 732.471 1, 731.996 2.386, 731.989 4.750 M 716.213 219.507 C 713.437 220.713, 710 225.670, 710 228.468 C 710 228.761, 720.834 229, 734.075 229 L 758.150 229 755.820 224.777 C 754.539 222.455, 752.368 219.986, 750.996 219.292 C 747.346 217.446, 720.576 217.611, 716.213 219.507 M 709.531 239.750 C 712.758 247.523, 712.807 247.538, 733.279 247.193 C 743.301 247.024, 752.246 246.670, 753.158 246.405 C 754.509 246.013, 759 238.407, 759 236.511 C 759 236.230, 747.519 236, 733.487 236 L 707.973 236 709.531 239.750 M 719.200 254.200 C 718.540 254.860, 718 257.245, 718 259.500 C 718 261.755, 718.540 264.140, 719.200 264.800 C 720.463 266.063, 744.364 266.565, 747.418 265.393 C 749.349 264.652, 749.643 256.043, 747.800 254.200 C 746.989 253.389, 742.356 253, 733.500 253 C 724.644 253, 720.011 253.389, 719.200 254.200 M 721.004 271.742 C 716.539 272.280, 715.401 273.275, 712.342 279.313 L 709.839 284.251 713.623 288.125 L 717.406 292 733.253 292 C 745.431 292, 749.775 291.650, 752.020 290.490 C 756.225 288.315, 757.294 285.805, 756.024 281.090 C 754.413 275.108, 752.051 272.851, 746.435 271.929 C 741.364 271.097, 727.215 270.993, 721.004 271.742 M 705.394 299.416 C 705.095 300.194, 704.997 302.107, 705.175 303.666 L 705.500 306.500 732.878 306.766 C 761.684 307.047, 763 306.864, 763 302.578 C 763 298.144, 762.064 298, 733.269 298 C 710.621 298, 705.844 298.243, 705.394 299.416 M 705.390 314.427 C 705.088 315.212, 704.990 316.900, 705.171 318.177 L 705.500 320.500 733.775 320.766 C 764.543 321.055, 764.008 321.152, 762.589 315.498 L 761.962 313 733.950 313 C 710.607 313, 705.846 313.238, 705.390 314.427 M 711.096 328.820 C 709.946 330.969, 704 345.827, 704 346.552 C 704 346.827, 705.462 346.288, 707.250 345.355 C 712.758 342.481, 718.764 343.001, 724.805 346.876 C 729.249 349.727, 730.733 350.178, 734.336 349.771 C 736.684 349.507, 740.430 348.082, 742.662 346.605 C 748.848 342.511, 752.984 342.214, 758.531 345.465 C 761.075 346.956, 763.340 347.993, 763.564 347.769 C 764.061 347.273, 757.148 330.003, 755.751 328.250 C 755.010 327.320, 749.289 327, 733.413 327 C 713.798 327, 711.992 327.147, 711.096 328.820 M 712.667 349.667 C 712.300 350.033, 712 356.060, 712 363.060 C 712 376.915, 712.037 377, 718.017 377 C 722.502 377, 726.249 375.154, 729.317 371.432 C 732.631 367.411, 733.425 367.256, 735.760 370.175 C 740.554 376.166, 741.852 377, 746.389 377 C 748.854 377, 751.987 376.575, 753.352 376.056 C 755.772 375.136, 755.836 374.846, 755.919 364.490 C 756.059 347.161, 755.531 346.611, 744.431 352.500 C 739.667 355.027, 736.564 356, 733.263 356 C 729.898 356, 727.041 355.077, 722.434 352.500 C 716.239 349.036, 713.959 348.374, 712.667 349.667 M 730.829 379.768 C 729.448 381.271, 727.339 384.141, 726.142 386.147 C 723.628 390.357, 720.798 392.446, 716.254 393.444 L 713.036 394.151 715.028 398.055 C 718.039 403.957, 720.526 404.758, 734.833 404.437 C 745.121 404.205, 747.501 403.856, 749.186 402.332 C 753.521 398.408, 755.107 391.977, 751.387 393.405 C 748.837 394.384, 745.572 391.974, 740.652 385.481 C 733.936 376.617, 733.799 376.537, 730.829 379.768 M 705.620 387.322 C 701.226 391.467, 701.078 393.742, 704.962 397.463 L 707.923 400.300 707.393 396.900 C 707.093 394.973, 707.548 391.591, 708.443 389.094 C 709.311 386.671, 709.846 384.512, 709.631 384.298 C 709.416 384.083, 707.612 385.444, 705.620 387.322 M 758.634 387.665 C 759.480 389.692, 760.022 393.234, 759.837 395.535 C 759.512 399.573, 759.573 399.671, 761.585 398.353 C 762.731 397.602, 764.273 395.859, 765.010 394.481 C 766.239 392.186, 766.106 391.718, 763.425 388.902 C 761.816 387.211, 759.734 385.412, 758.797 384.904 C 757.210 384.043, 757.199 384.232, 758.634 387.665 M 691 397.965 C 691 401.678, 691.441 403.160, 692.750 403.845 C 694.574 404.799, 701.005 404.246, 700.994 403.137 C 700.982 402.040, 692.892 393, 691.922 393 C 691.415 393, 691 395.234, 691 397.965 M 770.250 397.936 C 767.913 400.650, 766 403.125, 766 403.436 C 766 404.663, 774.813 403.930, 775.907 402.612 C 777.063 401.220, 776.391 392.999, 775.122 393 C 774.780 393.001, 772.587 395.222, 770.250 397.936 M 692.046 411.445 C 691.386 412.240, 690.994 413.927, 691.173 415.195 L 691.500 417.500 733.631 417.761 C 773.466 418.007, 775.787 417.924, 776.231 416.223 C 776.490 415.235, 776.333 413.430, 775.883 412.213 L 775.064 410 734.155 410 C 699.703 410, 693.056 410.228, 692.046 411.445 M 706.509 425.234 C 706.267 425.930, 705.941 428.288, 705.784 430.474 L 705.500 434.449 711.500 435.271 C 720.858 436.553, 724.683 435.716, 729.082 431.420 L 732.908 427.684 736.957 431.342 L 741.006 435 750.984 435 C 760.935 435, 760.964 434.993, 761.625 432.360 C 761.989 430.907, 761.875 428.545, 761.370 427.110 L 760.453 424.500 733.701 424.234 C 712.823 424.026, 706.853 424.245, 706.509 425.234 M 725.402 444.189 C 718.286 451.650, 715.656 453.200, 712.284 451.918 C 706.758 449.817, 706.549 453.913, 711.884 459.750 L 715.769 464 732.803 464 C 742.171 464, 750.571 463.718, 751.469 463.374 C 753.275 462.681, 760 454.286, 760 452.725 C 760 452.149, 758.487 451.984, 756.359 452.329 C 751.702 453.085, 749.952 452.125, 741.847 444.368 C 738.188 440.865, 734.319 438, 733.249 438 C 732.168 438, 728.684 440.748, 725.402 444.189 M 698.052 446.036 C 694.723 448.807, 692 451.418, 692 451.840 C 692 453.388, 703.346 463, 705.174 463 C 705.671 463, 705.160 462.015, 704.039 460.811 C 700.929 457.473, 700.938 452.002, 704.064 445.875 C 707.449 439.239, 706.179 439.273, 698.052 446.036 M 712.015 442.184 C 712.048 445.004, 713.846 446.560, 715.722 445.391 C 718.381 443.733, 717.875 441.543, 714.750 441.184 C 712.977 440.980, 712.005 441.335, 712.015 442.184 M 749 441.845 C 749 442.310, 749.816 443.429, 750.814 444.331 C 752.213 445.597, 752.899 445.701, 753.814 444.786 C 755.935 442.665, 755.138 441, 752 441 C 750.350 441, 749 441.380, 749 441.845 M 762.497 443.657 C 766.733 453.634, 766.822 456.667, 763 460.770 C 760.047 463.940, 761.342 463.543, 767.675 459.340 C 770.707 457.327, 773.693 454.572, 774.310 453.218 C 775.304 451.038, 775.092 450.478, 772.466 448.323 C 770.835 446.985, 767.748 444.973, 765.607 443.852 C 761.954 441.939, 761.763 441.927, 762.497 443.657 M 679.478 453.263 C 679.131 455.117, 678.993 458.179, 679.173 460.067 L 679.500 463.500 687.336 463.794 C 691.998 463.968, 694.939 463.710, 694.596 463.156 C 694.280 462.643, 690.891 459.449, 687.066 456.058 L 680.111 449.892 679.478 453.263 M 780.723 455.940 C 777.025 459.399, 774 462.628, 774 463.115 C 774 463.602, 777.102 464, 780.893 464 C 786.256 464, 787.921 463.649, 788.393 462.418 C 789.152 460.441, 789.017 455.273, 788.123 452.076 C 787.467 449.729, 787.231 449.853, 780.723 455.940 M 680.054 471.435 C 679.399 472.224, 679.007 474.361, 679.182 476.185 L 679.500 479.500 733.436 479.759 C 775.921 479.963, 787.541 479.750, 788.170 478.759 C 789.371 476.868, 789.160 472.560, 787.800 471.200 C 786.897 470.297, 773.561 470, 733.922 470 C 689.384 470, 681.061 470.222, 680.054 471.435 M 700.515 487.366 C 698.464 488.865, 697.203 498.686, 698.432 503.584 C 699.054 506.063, 699.369 506.197, 703.161 505.590 C 705.395 505.233, 707.736 505.342, 708.362 505.833 C 708.988 506.324, 711.843 506.988, 714.707 507.310 C 719.204 507.816, 720.668 507.493, 725.438 504.948 C 732.136 501.374, 733.716 501.316, 739.838 504.418 C 746.617 507.853, 750.706 508.391, 755.929 506.536 C 759.413 505.298, 761.061 505.195, 763.659 506.052 C 765.475 506.652, 767.420 506.859, 767.980 506.512 C 769.069 505.839, 769.410 490.231, 768.393 487.582 C 767.857 486.184, 763.981 486, 735.084 486 C 709.024 486, 702.003 486.277, 700.515 487.366 M 725.082 514.523 C 717.893 520.659, 716.614 521.219, 710.684 520.834 C 704.109 520.406, 703.658 521.955, 708.507 528.305 C 713.940 535.420, 715.066 535.744, 734.341 535.730 C 753.234 535.717, 753.045 535.782, 760.014 526.982 C 762.597 523.721, 762.928 522.734, 762.013 521.024 C 761.140 519.394, 760.529 519.182, 759.024 519.987 C 754.656 522.325, 750.585 521.179, 743.089 515.500 C 734.012 508.623, 732.114 508.520, 725.082 514.523 M 696.500 512.975 C 693.263 514.349, 681.691 522.426, 681.306 523.581 C 680.493 526.022, 697.740 536, 702.775 536 C 705.456 536, 705.141 532.924, 702.106 529.468 C 698.649 525.531, 698.231 522.388, 700.563 517.879 C 701.781 515.522, 701.865 514.542, 700.940 513.428 C 699.604 511.818, 699.300 511.787, 696.500 512.975 M 766 514.378 C 766 515.136, 766.681 517.386, 767.513 519.378 C 768.817 522.498, 768.836 523.451, 767.651 526.250 C 766.895 528.038, 765.314 530.357, 764.138 531.405 C 762.962 532.453, 762 533.749, 762 534.287 C 762 536.200, 770.392 534.109, 777.907 530.324 C 788.109 525.186, 788.190 523.900, 778.700 517.750 C 771.456 513.055, 766 511.607, 766 514.378 M 794.038 526.516 C 788.284 530.507, 783.409 534.274, 783.205 534.886 C 782.611 536.668, 802.434 536.387, 803.923 534.592 C 804.639 533.730, 804.977 530.488, 804.796 526.222 L 804.500 519.260 794.038 526.516 M 663.667 521.667 C 662.393 522.940, 662.918 534.996, 664.250 535.067 C 678.344 535.824, 683.996 535.710, 683.965 534.672 C 683.936 533.682, 666.152 521, 664.793 521 C 664.540 521, 664.033 521.300, 663.667 521.667 M 664.623 542.191 C 662.654 543.293, 662.331 552.931, 664.200 554.800 C 665.936 556.536, 802.064 556.536, 803.800 554.800 C 805.383 553.217, 805.346 544.521, 803.750 543.246 C 802.122 541.945, 666.895 540.920, 664.623 542.191 M 730.364 561.750 C 694.986 561.978, 688.034 562.254, 687.022 563.473 C 685.343 565.496, 684.589 575.929, 685.881 579.250 C 686.798 581.608, 687.516 582, 690.916 582 C 693.097 582, 695.133 582.407, 695.441 582.904 C 695.748 583.401, 700.741 584.131, 706.536 584.526 C 718.634 585.350, 723.621 584.093, 728.517 578.982 C 731.987 575.361, 733.934 575.236, 736.947 578.444 C 741.918 583.735, 745.105 584.452, 763.151 584.342 C 772.309 584.286, 780.297 583.934, 780.901 583.561 C 781.573 583.146, 782 579.237, 782 573.498 C 782 564.934, 781.806 563.977, 779.777 562.557 C 778.555 561.701, 776.418 561.107, 775.027 561.239 C 773.637 561.370, 753.539 561.600, 730.364 561.750 M 721.523 593.153 C 708.198 605.265, 704.828 606.422, 698.653 601 C 696.774 599.350, 694.969 598, 694.644 598 C 693.394 598, 691 604.051, 691.004 607.200 C 691.008 611.198, 693.068 614.513, 700.750 622.885 L 706.608 629.270 731.554 629.337 C 755.246 629.401, 756.708 629.296, 760.628 627.244 C 765.438 624.727, 771.677 617.970, 775.034 611.641 C 777.389 607.202, 777.390 607.191, 775.523 603.050 C 774.494 600.769, 773.276 598.670, 772.815 598.386 C 772.355 598.101, 770.598 599.248, 768.912 600.934 C 765.307 604.539, 761.067 604.955, 756.500 602.151 C 754.850 601.138, 749.350 596.639, 744.279 592.154 C 739.207 587.669, 734.257 584.019, 733.279 584.042 C 732.300 584.065, 727.010 588.165, 721.523 593.153 M 682.500 591.011 C 678.790 592.651, 660.500 607.594, 660.500 608.985 C 660.500 610.480, 674.781 622.274, 681.895 626.654 C 686.209 629.310, 694.782 630.547, 696.562 628.770 C 696.964 628.369, 695.459 626.051, 693.217 623.620 C 684.350 614, 682.739 605.668, 687.957 596.421 C 690.444 592.015, 690.670 591.087, 689.376 590.591 C 687.306 589.796, 684.917 589.943, 682.500 591.011 M 777.828 590.674 C 776.380 591.057, 776.559 591.767, 779.158 595.947 C 785.002 605.349, 783.639 613.126, 774.419 622.983 C 771.822 625.759, 769.878 628.191, 770.099 628.387 C 770.319 628.583, 772.525 629.036, 775 629.394 C 780.703 630.218, 783.147 628.981, 797.261 618.132 C 804.703 612.411, 807.787 609.458, 807.261 608.555 C 806.411 607.097, 788.201 592.713, 785.110 591.059 C 783.107 589.987, 780.872 589.869, 777.828 590.674 M 700.555 593.250 C 702.345 599.089, 706.115 599.540, 711 594.500 L 714.392 591 707.129 591 C 700.058 591, 699.884 591.060, 700.555 593.250 M 755.535 594.037 C 757.135 595.707, 759.488 597.335, 760.763 597.655 C 763.490 598.340, 767 595.633, 767 592.845 C 767 591.223, 766.132 591, 759.813 591 L 752.626 591 755.535 594.037 M 636 614.031 C 636 624.530, 636.323 628.187, 637.284 628.555 C 637.990 628.826, 646.587 628.925, 656.388 628.774 L 674.209 628.500 655.653 614.250 C 645.448 606.413, 636.851 600, 636.549 600 C 636.247 600, 636 606.314, 636 614.031 M 811.781 614.156 L 793.062 628.500 811.208 628.773 C 821.188 628.924, 829.737 628.663, 830.206 628.194 C 830.675 627.725, 830.933 621.147, 830.779 613.576 L 830.500 599.811 811.781 614.156 M 638.223 636.557 C 636.406 637.829, 636 639.072, 636 643.366 C 636 649.346, 637.400 651.775, 641 652.038 C 642.375 652.139, 685.688 652.172, 737.250 652.111 L 831 652 831 644.700 C 831 640.356, 830.514 636.914, 829.800 636.200 C 828.884 635.284, 806.361 635, 734.523 635 C 650.993 635, 640.196 635.175, 638.223 636.557 M 670.315 659.007 C 669.114 659.491, 667.651 660.783, 667.065 661.878 C 665.842 664.164, 665.642 678.889, 666.810 680.727 C 667.849 682.363, 713.780 683.190, 719.349 681.673 C 722.005 680.949, 724.456 679.132, 727.255 675.812 C 729.487 673.165, 732.083 671, 733.024 671 C 733.964 671, 735.889 672.745, 737.301 674.879 C 738.834 677.196, 741.606 679.569, 744.184 680.772 C 748.248 682.668, 749.922 682.755, 772.805 682.259 C 802.385 681.618, 801.300 682.067, 801.838 670.220 C 802.054 665.468, 801.742 661.386, 801.065 660.122 L 799.930 658 736.215 658.063 C 701.172 658.098, 671.517 658.523, 670.315 659.007 M 720.072 693.536 C 713.323 701.560, 706.702 708.543, 705.359 709.054 C 703.995 709.572, 699.957 709.655, 696.209 709.241 C 689.846 708.538, 689.484 708.358, 689.184 705.750 C 689.010 704.237, 688.448 703, 687.935 703 C 686.466 703, 681.040 712.252, 681.019 714.793 C 680.993 717.947, 689.103 726.388, 694.820 729.155 C 699.007 731.182, 700.723 731.371, 712.972 731.153 C 721.937 730.994, 726.892 730.506, 727.661 729.706 C 728.567 728.765, 732 702.052, 732 695.943 C 732 695.241, 732.200 694.867, 732.445 695.112 C 733.093 695.760, 734.767 707.002, 735.903 718.330 C 736.445 723.737, 737.418 728.799, 738.066 729.580 C 739.786 731.652, 769.895 731.623, 773.911 729.546 C 777.698 727.588, 787 716.719, 787 714.252 C 787 713.165, 785.763 710.686, 784.250 708.743 C 782.737 706.800, 780.999 704.376, 780.387 703.355 C 779.387 701.688, 779.202 701.831, 778.556 704.758 C 777.503 709.533, 775.163 710.377, 766.860 708.976 C 758.776 707.613, 759.136 707.893, 744.396 691.500 C 738.461 684.900, 733.321 679.376, 732.974 679.224 C 732.627 679.072, 726.821 685.513, 720.072 693.536 M 591 706.482 C 591 724.533, 591.296 730.176, 592.261 730.547 C 592.954 730.813, 606.986 730.911, 623.442 730.765 L 653.363 730.500 623.510 707.500 C 607.092 694.850, 593.060 684.140, 592.329 683.700 C 591.239 683.044, 591 687.135, 591 706.482 M 844.781 706.786 L 814.061 730.500 844.160 730.765 C 865.533 730.953, 874.657 730.700, 875.630 729.892 C 876.717 728.990, 877 724.031, 877 705.878 C 877 693.295, 876.663 683.016, 876.250 683.036 C 875.837 683.056, 861.676 693.743, 844.781 706.786 M 660.410 690.843 C 657.611 692.387, 650.775 697.151, 645.220 701.429 L 635.119 709.208 639.810 712.771 C 642.389 714.731, 646.975 718.350, 650 720.814 C 658.973 728.124, 666.110 731.011, 675 730.929 C 686.778 730.820, 687.026 730.420, 679.488 723.679 C 675.920 720.487, 673 717.163, 673 716.291 C 673 715.420, 676.121 709.486, 679.937 703.104 C 689.899 686.439, 690.217 687.997, 676.857 688.018 C 666.305 688.035, 665.139 688.235, 660.410 690.843 M 695.750 689.118 C 694.430 689.858, 694.004 691.377, 694.015 695.300 C 694.024 698.160, 694.362 701.021, 694.768 701.658 C 695.955 703.524, 702.267 704.296, 704.153 702.806 C 705.921 701.409, 716 689.375, 716 688.660 C 716 687.764, 697.415 688.184, 695.750 689.118 M 750.951 689.907 C 752.465 692.731, 764.777 704, 766.348 704 C 770.963 704, 772.693 702.236, 773.327 696.884 C 774.276 688.874, 773.230 688.171, 760.478 688.250 C 751.301 688.306, 750.196 688.498, 750.951 689.907 M 781.797 688.658 L 779.095 689.124 782.186 694.312 C 783.887 697.165, 787.062 702.112, 789.242 705.305 C 791.422 708.498, 793.429 712.781, 793.703 714.823 C 794.171 718.309, 793.812 718.918, 787.851 724.762 L 781.500 730.988 791.500 730.972 C 803.411 730.953, 807.753 729.366, 815.469 722.212 C 818.265 719.621, 822.678 716.047, 825.276 714.271 C 831.542 709.987, 831.443 707.986, 824.750 703.699 C 821.862 701.850, 817.328 698.455, 814.673 696.154 C 807.013 689.517, 804.668 688.638, 794 688.403 C 788.775 688.287, 783.284 688.403, 781.797 688.658 M 738.791 737.752 C 738.207 738.455, 737.958 741.484, 738.222 744.668 C 739.059 754.760, 733.334 754, 808.539 754 C 866.586 754, 874.032 753.825, 875.429 752.429 C 877.436 750.422, 877.618 739.758, 875.673 738.143 C 873.627 736.445, 740.191 736.064, 738.791 737.752 M 591.667 737.667 C 591.300 738.033, 591 741.393, 591 745.131 C 591 750.829, 591.313 752.097, 592.934 752.965 C 595.973 754.591, 720.756 754.347, 723.995 752.708 C 725.869 751.760, 726.706 750.269, 727.354 746.722 C 727.828 744.124, 727.934 740.874, 727.589 739.499 L 726.962 737 659.648 737 C 622.625 737, 592.033 737.300, 591.667 737.667 M 727.129 801.284 C 721.991 850.948, 721.866 852.844, 723.516 856.113 C 725.802 860.647, 730.988 866, 733.093 866 C 735.185 866, 740.775 859.782, 742.592 855.435 C 743.755 852.651, 743.547 848.452, 741.030 823.862 C 739.433 808.263, 737.169 786.050, 736 774.500 C 734.830 762.950, 733.552 752.677, 733.161 751.671 C 732.770 750.665, 730.056 772.991, 727.129 801.284 M 634.323 760.506 C 633.233 761.303, 633.004 764.840, 633.223 777.506 L 633.500 793.500 670 793.751 L 706.500 794.003 714.045 786.751 C 718.194 782.763, 722.357 777.857, 723.295 775.849 C 725.640 770.827, 725.610 761.397, 723.244 760.131 C 720.813 758.829, 636.127 759.187, 634.323 760.506 M 742.680 760.159 C 740.502 761.378, 740.386 770.594, 742.484 775.616 C 743.300 777.570, 747.463 782.503, 751.734 786.578 L 759.500 793.987 796.191 793.994 C 822.399 793.998, 833.082 793.677, 833.581 792.870 C 834.511 791.364, 834.698 762.129, 833.787 760.654 C 832.885 759.195, 745.253 758.719, 742.680 760.159 M 743.437 791.037 C 743.781 793.492, 744.669 801.194, 745.411 808.153 C 746.963 822.703, 746.321 821.542, 759.993 834.532 C 851.713 921.673, 910.783 976.795, 914.022 978.268 C 916.160 979.240, 921.456 980.538, 925.791 981.151 C 936.711 982.695, 938.885 981.598, 940.682 973.634 C 942.839 964.079, 947.413 956.920, 959.778 943.747 C 975.035 927.494, 978.011 923.750, 977.941 920.897 C 977.854 917.368, 970.428 897.499, 969.660 898.741 C 969.299 899.325, 968.518 903.334, 967.924 907.651 C 967.331 911.968, 966.644 916.912, 966.398 918.639 C 965.860 922.416, 964.423 923.081, 950.500 925.995 C 945 927.146, 932.717 929.911, 923.204 932.140 C 913.690 934.370, 904.867 935.932, 903.595 935.613 C 902.323 935.294, 892.316 926.588, 881.357 916.266 C 851.342 887.998, 753.185 796.023, 747.657 790.986 L 742.813 786.573 743.437 791.037 M 711 797.623 C 705.225 803.102, 674.635 832.091, 643.022 862.042 C 611.409 891.994, 580.915 920.888, 575.258 926.250 C 567.873 933.250, 564.265 936, 562.467 936 C 558.139 936, 503.587 923.016, 502.235 921.664 C 501.470 920.898, 500.528 915.545, 499.913 908.461 C 498.953 897.412, 498.518 895.005, 497.674 896.083 C 497.494 896.312, 495.413 902.049, 493.050 908.831 C 489.653 918.578, 488.965 921.616, 489.768 923.331 C 490.326 924.524, 496.953 932.250, 504.495 940.500 C 522.234 959.906, 523.444 961.610, 525.535 970.145 C 528.070 980.486, 528.824 981, 541.465 981 C 553.879 981, 549.998 983.606, 579.500 955.458 C 590.500 944.963, 626.050 911.228, 658.500 880.491 C 690.950 849.754, 717.811 824.107, 718.191 823.497 C 719.174 821.919, 722.196 794.726, 721.817 790.874 L 721.500 787.662 711 797.623 M 539.232 813.750 L 539.500 837.500 573.750 837.763 C 592.587 837.908, 608 837.657, 608 837.206 C 608 836.396, 540.746 790, 539.572 790 C 539.237 790, 539.084 800.688, 539.232 813.750 M 892.765 813.349 C 874.211 826.082, 859.023 836.843, 859.015 837.263 C 859.007 837.683, 874.413 837.908, 893.250 837.763 L 927.500 837.500 927.768 813.750 C 927.916 800.688, 927.691 790.045, 927.268 790.099 C 926.846 790.154, 911.319 800.617, 892.765 813.349 M 624 801.493 C 618.752 803.077, 592.120 816.169, 592.049 817.199 C 591.953 818.567, 607.560 830.001, 613.543 832.947 C 623.780 837.986, 631.525 839.274, 646.722 838.465 C 653.994 838.078, 660.569 837.253, 661.333 836.631 C 662.097 836.009, 668.936 828.525, 676.529 820 C 684.122 811.475, 691.238 803.487, 692.342 802.250 L 694.349 800 661.424 800.067 C 636.713 800.117, 627.377 800.473, 624 801.493 M 768.692 800.641 C 767.449 801.885, 801.060 834.106, 806 836.405 C 810.125 838.325, 811.999 838.477, 828.482 838.229 L 846.463 837.959 855.612 831.926 C 860.643 828.609, 867.494 823.969, 870.837 821.615 L 876.914 817.336 860.207 808.918 L 843.500 800.500 806.451 800.216 C 786.074 800.059, 769.083 800.251, 768.692 800.641 M 748.618 841.095 C 749.273 851.048, 750.176 853.408, 754.691 856.961 C 760.919 861.862, 815.299 897.034, 815.830 896.504 C 816.143 896.190, 814.847 894.434, 812.950 892.602 C 806.379 886.258, 752.394 835.492, 750.202 833.595 L 748 831.690 748.618 841.095 M 684.783 863.623 C 648.168 898.232, 647.925 898.472, 650.405 897.608 C 653.248 896.617, 707.050 861.182, 710.342 858.133 C 715.017 853.801, 717 848.859, 717 841.540 C 717 837.943, 716.565 835, 716.033 835 C 715.501 835, 701.438 847.881, 684.783 863.623 M 539.667 844.667 C 538.465 845.868, 538.931 857.839, 540.210 858.630 C 540.875 859.041, 563.037 859.266, 589.460 859.129 L 637.500 858.881 644.992 851.441 L 652.484 844 596.409 844 C 565.567 844, 540.033 844.300, 539.667 844.667 M 819.531 850.076 C 829.241 859.960, 825.011 859.285, 877.990 859.400 L 924.500 859.500 926.871 857.174 C 928.825 855.258, 929.149 854.149, 928.711 850.885 C 927.722 843.509, 931.934 844, 869.659 844 L 813.563 844 819.531 850.076 M 713.391 863.792 C 706.607 867.519, 637.923 913.474, 638.733 913.744 C 639.209 913.903, 660.052 909.043, 685.050 902.943 C 710.047 896.844, 732.525 891.859, 735 891.866 C 737.475 891.872, 759.518 896.825, 783.984 902.871 C 808.451 908.917, 828.600 913.733, 828.761 913.572 C 829.511 912.822, 752.156 862.561, 749.666 862.181 C 747.411 861.837, 745.981 862.561, 742.666 865.726 C 737.708 870.461, 734.055 873, 732.203 873 C 731.460 873, 728.257 870.525, 725.085 867.500 C 721.914 864.475, 718.685 862.019, 717.910 862.042 C 717.134 862.065, 715.101 862.852, 713.391 863.792 M 590.200 866.200 C 589.372 867.028, 589 872.118, 589 882.633 C 589 896.987, 589.115 897.902, 591 898.500 C 592.100 898.849, 593.878 898.856, 594.951 898.516 C 596.732 897.950, 626 866.896, 626 865.572 C 626 864.366, 591.427 864.973, 590.200 866.200 M 838.519 867.913 C 855.345 884.354, 869.792 897.106, 872.667 898.055 C 878.551 899.997, 879 898.865, 879 882.078 C 879 871.995, 878.624 867.024, 877.800 866.200 C 876.945 865.345, 870.704 865, 856.069 865 L 835.538 865 838.519 867.913 M 425 923.741 C 425 948.742, 425.314 957.914, 426.200 958.800 C 427.095 959.695, 438.096 960, 469.533 960 C 492.707 960, 511.949 959.718, 512.294 959.373 C 513.107 958.559, 493.145 936.143, 487.123 931.108 C 484.580 928.981, 478 924.413, 472.500 920.956 C 467 917.499, 454.625 909.428, 445 903.020 C 435.375 896.611, 426.938 891.034, 426.250 890.625 C 425.260 890.037, 425 896.924, 425 923.741 M 1034.479 895.129 C 1030.640 897.950, 1018.500 906.231, 1007.500 913.532 C 984.174 929.013, 973.995 937.004, 964.086 947.615 C 952.575 959.941, 948.832 958.590, 996.796 959.414 C 1019.733 959.807, 1039.287 959.827, 1040.250 959.458 C 1041.870 958.836, 1042 956.226, 1042 924.393 C 1042 905.477, 1041.878 890, 1041.729 890 C 1041.579 890, 1038.317 892.308, 1034.479 895.129 M 718 900.477 C 713.875 901.265, 706.181 903.242, 700.903 904.870 C 695.624 906.498, 682.884 909.781, 672.592 912.165 L 653.879 916.500 693.940 916.761 C 715.973 916.905, 752.112 916.905, 774.250 916.761 L 814.500 916.500 804.500 914.190 C 799 912.920, 788.650 910.280, 781.500 908.323 C 774.350 906.366, 764.450 903.656, 759.500 902.300 C 748.078 899.171, 729.183 898.341, 718 900.477 M 553.500 912.114 C 519.231 918.797, 518.600 918.934, 519.229 919.563 C 519.945 920.278, 558.767 930, 560.909 930 C 562.653 930, 584.831 907.431, 583.894 906.609 C 583.677 906.419, 570 908.896, 553.500 912.114 M 882 906.766 C 882 908.200, 904.524 930, 906.016 930.009 C 907.585 930.019, 946.437 921.260, 949 920.318 C 951.469 919.411, 947.456 918.456, 914.224 912.039 C 879.257 905.287, 882 905.736, 882 906.766 M 593.563 950.095 C 553.833 987.720, 555.487 986.300, 550.632 986.948 L 546.500 987.500 546.223 1001.750 C 546.070 1009.587, 546.124 1016, 546.342 1016 C 547.217 1016, 621.553 983.796, 622.265 983.109 C 622.686 982.702, 622.911 968.942, 622.765 952.530 L 622.500 922.690 593.563 950.095 M 630.200 925.200 C 629.305 926.095, 629 937.117, 629 968.629 C 629 1005.685, 629.192 1011.050, 630.571 1012.429 C 631.980 1013.837, 642.770 1014, 734.371 1014 C 812.549 1014, 836.882 1013.718, 837.800 1012.800 C 839.526 1011.074, 839.526 926.926, 837.800 925.200 C 836.059 923.459, 631.941 923.459, 630.200 925.200 M 845.015 951.167 C 845.024 966.200, 845.392 979.069, 845.834 979.765 C 846.458 980.749, 853.218 980.971, 876.203 980.765 L 905.769 980.500 876.237 952.500 C 859.995 937.100, 846.322 924.350, 845.853 924.167 C 845.384 923.983, 845.007 936.133, 845.015 951.167 M 464.721 965.750 L 425.942 966.024 425.038 968.401 C 424.541 969.708, 424.447 972.965, 424.829 975.639 L 425.524 980.500 473.776 980.760 L 522.027 981.019 521.374 976.760 C 520.013 967.871, 516.265 964.735, 507.601 965.238 C 505.345 965.369, 486.049 965.599, 464.721 965.750 M 952 965.965 C 948.948 966.721, 946.938 970.618, 946.688 976.266 L 946.500 980.500 993.169 980.760 C 1046.773 981.058, 1043.726 981.563, 1042.544 972.573 C 1042.177 969.783, 1041.435 967.053, 1040.894 966.506 C 1039.814 965.412, 956.285 964.904, 952 965.965 M 856.018 987.750 C 856.031 988.289, 911.105 1012.417, 920.120 1015.833 C 921.526 1016.366, 921.216 989.616, 919.800 988.200 C 918.447 986.847, 855.986 986.406, 856.018 987.750 M 586.500 1005.193 C 567.250 1013.475, 506.050 1039.814, 450.500 1063.722 C 394.950 1087.631, 347.836 1107.430, 345.802 1107.721 C 342.798 1108.150, 336.967 1106.338, 314.711 1098.061 C 299.645 1092.457, 285.885 1087, 284.134 1085.935 C 280.699 1083.846, 279 1080.557, 279 1075.994 C 279 1074.412, 278.634 1072.892, 278.187 1072.615 C 277.102 1071.945, 271 1084.422, 271 1087.311 C 271 1090.129, 275.755 1094.736, 291.500 1107.174 C 308.467 1120.576, 314.191 1126.066, 321.746 1136.183 C 325.567 1141.300, 329.317 1145.293, 330.607 1145.616 C 332.190 1146.014, 353.090 1136.997, 402.172 1114.742 C 440.302 1097.453, 505.552 1067.871, 547.172 1049.005 C 607.384 1021.711, 622.960 1014.274, 623.409 1012.601 C 623.719 1011.446, 623.979 1005.888, 623.986 1000.250 C 623.996 992.674, 623.674 990.017, 622.750 990.067 C 622.063 990.104, 605.750 996.911, 586.500 1005.193 M 845 1000.811 C 845 1006.875, 845.281 1012.569, 845.625 1013.465 C 845.968 1014.360, 848.331 1016.142, 850.875 1017.425 C 853.419 1018.708, 909.725 1044.293, 976 1074.279 C 1042.275 1104.266, 1105.136 1132.726, 1115.691 1137.524 C 1129.442 1143.774, 1135.536 1146.072, 1137.191 1145.629 C 1138.461 1145.289, 1141.056 1142.704, 1142.958 1139.885 C 1149.012 1130.908, 1159.632 1120.479, 1177.309 1106.152 C 1186.764 1098.488, 1195.326 1091.303, 1196.336 1090.185 C 1198.133 1088.196, 1198.067 1087.949, 1193.336 1078.826 L 1188.500 1069.500 1188.207 1076.116 C 1187.973 1081.423, 1187.478 1083.135, 1185.707 1084.774 C 1184.493 1085.897, 1174.050 1090.285, 1162.500 1094.524 C 1150.950 1098.764, 1138.226 1103.530, 1134.224 1105.116 C 1130.222 1106.702, 1125.434 1108, 1123.585 1108 C 1121.356 1108, 1074.196 1088.222, 983.861 1049.404 C 908.862 1017.176, 846.938 990.578, 846.250 990.297 C 845.295 989.907, 845 992.385, 845 1000.811 M 343 1027.438 C 343 1048.752, 343.380 1061.842, 344.035 1063.066 C 345.029 1064.922, 346.495 1065, 380.476 1065 C 399.949 1065, 416.121 1064.613, 416.414 1064.139 C 416.836 1063.456, 370.977 1019.345, 347.750 998.092 L 343 993.745 343 1027.438 M 1086.285 1029.413 L 1049.071 1064.500 1085.237 1064.763 C 1114.020 1064.972, 1121.671 1064.758, 1122.715 1063.714 C 1123.757 1062.672, 1123.972 1055.392, 1123.763 1028.364 L 1123.500 994.327 1086.285 1029.413 M 468.250 1029.763 C 433.462 1035.554, 405.008 1040.564, 405.017 1040.896 C 405.026 1041.228, 410.349 1047.067, 416.846 1053.872 C 426.866 1064.367, 428.989 1066.138, 430.847 1065.549 C 434.915 1064.257, 535.492 1020.758, 536.450 1019.875 C 538.209 1018.255, 531.823 1019.181, 468.250 1029.763 M 930.550 1019.888 C 932.027 1021.267, 1036.564 1066.009, 1038.120 1065.928 C 1039.329 1065.864, 1060.099 1043.213, 1060.748 1041.250 C 1060.953 1040.631, 933.560 1018.817, 930.550 1018.956 C 929.950 1018.984, 929.950 1019.327, 930.550 1019.888 M 641.550 1020.922 C 642.693 1022.032, 731.895 1078.022, 733.501 1078.639 C 734.372 1078.973, 825.539 1022.794, 827.807 1020.527 C 828.096 1020.237, 786.093 1020, 734.467 1020 C 677.170 1020, 640.970 1020.359, 641.550 1020.922 M 616 1024.336 C 612.975 1025.593, 609.238 1027.295, 607.696 1028.117 L 604.892 1029.612 604.972 1134.485 C 605.029 1208.952, 605.370 1239.741, 606.149 1240.679 C 607.436 1242.230, 619.670 1242.494, 622 1241.021 C 623.318 1240.188, 623.500 1226.907, 623.500 1131.370 C 623.500 1059.773, 623.159 1022.562, 622.500 1022.358 C 621.950 1022.189, 619.025 1023.079, 616 1024.336 M 629.500 1031.294 C 629.500 1038.150, 629.922 1041.224, 631.113 1043.045 C 632 1044.401, 641.450 1050.888, 652.113 1057.460 C 662.776 1064.033, 684.887 1077.868, 701.249 1088.205 C 723.505 1102.266, 731.787 1107, 734.130 1107 C 736.504 1107, 748.699 1099.846, 784.452 1077.483 C 810.405 1061.249, 833.184 1046.375, 835.070 1044.429 C 838.414 1040.981, 838.509 1040.655, 838.847 1031.446 C 839.091 1024.769, 838.854 1022, 838.038 1022 C 837.402 1022, 814.522 1035.990, 787.191 1053.088 C 752.281 1074.929, 736.602 1084.207, 734.482 1084.279 C 732.158 1084.359, 720.004 1077.208, 681.646 1053.192 C 654.246 1036.036, 631.304 1022.002, 630.664 1022.004 C 629.863 1022.007, 629.500 1024.900, 629.500 1031.294 M 845 1130.309 C 845 1216.304, 845.262 1238.976, 846.270 1240.355 C 847.328 1241.802, 848.875 1242.043, 855.520 1241.796 L 863.500 1241.500 863.737 1136.500 C 863.868 1078.750, 863.643 1031.005, 863.237 1030.401 C 862.561 1029.392, 847.062 1022, 845.624 1022 C 845.281 1022, 845 1070.739, 845 1130.309 M 568 1045.846 C 553.975 1052.299, 522.552 1066.562, 498.171 1077.540 C 471.283 1089.647, 453.447 1098.225, 452.837 1099.342 C 451.481 1101.826, 451.562 1178.962, 452.922 1180.322 C 455.562 1182.962, 459.699 1175.551, 463.426 1161.500 C 470.488 1134.878, 483.741 1120.066, 505.460 1114.522 C 513.392 1112.496, 535.277 1112.506, 543.897 1114.537 C 553.918 1116.900, 563.202 1122.323, 570.085 1129.834 C 577.324 1137.734, 581.900 1146.789, 586.086 1161.500 C 589.563 1173.717, 590.831 1176.632, 593.860 1179.374 C 598.966 1183.994, 598.845 1185.672, 598.960 1108.728 C 599.019 1069.463, 598.779 1036.586, 598.426 1035.669 C 598.074 1034.751, 596.822 1034.025, 595.643 1034.056 C 594.464 1034.087, 582.025 1039.392, 568 1045.846 M 870 1107.500 C 870 1180.158, 870.023 1181, 871.986 1181 C 874.874 1181, 878.883 1174.322, 881.112 1165.796 C 886.060 1146.877, 890.882 1137.103, 899.509 1128.500 C 910.697 1117.345, 923.251 1112.843, 943.500 1112.727 C 957.383 1112.648, 964.802 1114.213, 975.632 1119.506 C 989.379 1126.226, 1000.064 1141.316, 1005.013 1161 C 1008.461 1174.713, 1012.215 1181.622, 1015.529 1180.351 C 1016.789 1179.867, 1017 1174.209, 1017 1140.949 L 1017 1102.112 1014.750 1099.542 C 1013.271 1097.853, 999.310 1091.024, 974 1079.608 C 952.825 1070.058, 921.414 1055.889, 904.199 1048.122 C 886.983 1040.355, 872.245 1034, 871.449 1034 C 870.197 1034, 870 1043.992, 870 1107.500 M 437.543 1105.124 C 433.725 1106.753, 430.017 1108.571, 429.301 1109.165 C 428.257 1110.032, 428 1123.261, 428 1176.122 L 428 1242 435.418 1242 C 439.498 1242, 443.548 1241.727, 444.418 1241.393 C 445.839 1240.848, 445.998 1233.867, 445.985 1172.643 C 445.976 1135.164, 445.635 1103.974, 445.226 1103.332 C 444.691 1102.490, 442.543 1102.991, 437.543 1105.124 M 1023.470 1104.049 C 1023.114 1104.625, 1022.815 1135.235, 1022.806 1172.069 C 1022.793 1223.548, 1023.074 1239.384, 1024.017 1240.521 C 1025.554 1242.373, 1038.007 1242.593, 1039.800 1240.800 C 1041.706 1238.894, 1041.510 1116.881, 1039.595 1113.200 C 1037.499 1109.171, 1033.959 1106.250, 1029.096 1104.534 C 1023.928 1102.711, 1024.278 1102.741, 1023.470 1104.049 M 871.865 1249.807 C 870.805 1250.550, 870 1252.314, 870 1253.897 C 870 1257.639, 873.707 1271.943, 875.118 1273.642 C 876.061 1274.779, 914.066 1275, 1108.505 1275 L 1340.766 1275 1348.383 1263.387 C 1352.572 1257, 1356 1251.361, 1356 1250.856 C 1356 1250.351, 1355.438 1249.728, 1354.750 1249.472 C 1354.063 1249.216, 1245.552 1248.893, 1113.615 1248.753 C 917.458 1248.546, 873.391 1248.738, 871.865 1249.807 M 111 1249.669 C 111 1251.088, 117.471 1261.807, 122.217 1268.250 L 127.189 1275 359.022 1275 L 590.855 1275 592.734 1272.611 C 595.387 1269.239, 597.898 1251.182, 595.891 1249.911 C 594.280 1248.892, 111 1248.650, 111 1249.669 M 611.557 1251.223 C 610.701 1252.445, 610 1254.326, 610 1255.402 C 610 1256.478, 608.608 1262.919, 606.907 1269.716 C 605.206 1276.512, 604.067 1282.731, 604.376 1283.536 C 604.865 1284.811, 621.614 1285, 733.910 1285 C 804.844 1285, 863.102 1284.645, 863.370 1284.210 C 863.959 1283.258, 858.641 1251.846, 857.608 1250.175 C 857.058 1249.285, 827.301 1249, 734.998 1249 L 613.113 1249 611.557 1251.223 M 477.250 1295.008 C 474.520 1296.133, 474.525 1295.684, 477.183 1301.623 C 478.912 1305.485, 479.442 1308.892, 479.734 1318 C 479.951 1324.770, 479.685 1330.117, 479.088 1331 C 478.196 1332.319, 459.562 1332.560, 324.915 1333 L 171.758 1333.500 178.270 1341.500 C 181.852 1345.900, 186.774 1351.425, 189.208 1353.778 L 193.633 1358.056 330.566 1358.035 C 413.992 1358.023, 468.074 1358.381, 468.968 1358.951 C 470.230 1359.756, 470.255 1360.703, 469.143 1365.694 C 465.206 1383.373, 464.064 1392.963, 464.104 1408 C 464.127 1416.525, 464.501 1425.975, 464.935 1429 C 465.369 1432.025, 465.513 1435.063, 465.255 1435.750 C 464.886 1436.735, 447.358 1437.024, 382.643 1437.112 C 337.464 1437.173, 296.225 1437.511, 291 1437.862 L 281.500 1438.500 290 1445.318 C 294.675 1449.068, 303.137 1455.256, 308.803 1459.068 L 319.107 1466 407.053 1466 C 504.795 1466, 496.885 1466.624, 493.112 1459.210 C 489.844 1452.787, 484.926 1437.850, 483 1428.500 C 478.731 1407.769, 479.493 1392.080, 486.001 1366.658 C 492.924 1339.617, 494.860 1324.153, 493.081 1310.096 C 492.496 1305.474, 491.226 1300.074, 490.259 1298.096 C 488.660 1294.827, 488.090 1294.481, 484 1294.290 C 481.525 1294.174, 478.488 1294.497, 477.250 1295.008 M 497.162 1295.305 C 496.375 1296.253, 496.502 1297.963, 497.628 1301.555 C 499.796 1308.473, 499.770 1330.722, 497.580 1342.500 C 496.660 1347.450, 494.599 1356.225, 493 1362 C 488.121 1379.626, 486.701 1389.262, 486.737 1404.500 C 486.785 1424.594, 491.432 1444.187, 499.780 1459.500 L 502.506 1464.500 524.753 1464.769 C 536.989 1464.917, 547 1464.762, 547 1464.424 C 547 1464.085, 546.074 1462.508, 544.941 1460.918 C 541.257 1455.743, 535.203 1441.686, 533.102 1433.429 C 526.417 1407.149, 528.222 1382.618, 539.685 1344 C 544.681 1327.170, 543.684 1302.632, 537.745 1296.250 C 535.718 1294.071, 535.057 1294, 516.948 1294 C 502.784 1294, 497.982 1294.317, 497.162 1295.305 M 545.521 1294.966 C 545.193 1295.497, 545.729 1298.534, 546.712 1301.716 C 548.079 1306.138, 548.481 1310.679, 548.419 1321 C 548.350 1332.500, 547.938 1335.908, 545.638 1344 C 536.233 1377.079, 534.409 1388.435, 535.293 1408.407 C 536.008 1424.559, 539.162 1437.662, 545.066 1449.010 C 547.373 1453.445, 549.446 1456.888, 549.672 1456.661 C 550.163 1456.171, 571.162 1365.995, 574.239 1351.167 C 576.132 1342.044, 576.250 1339.935, 575.251 1333.167 C 573.793 1323.294, 571.530 1316.452, 566.435 1306.514 C 561.483 1296.852, 557.944 1294, 550.911 1294 C 548.275 1294, 545.849 1294.435, 545.521 1294.966 M 602.292 1295.508 C 600.834 1296.529, 599.778 1298.871, 599.024 1302.758 C 598.411 1305.916, 596.957 1312.598, 595.792 1317.606 C 594.628 1322.615, 593.960 1327.452, 594.306 1328.356 C 594.887 1329.870, 605.822 1330, 732.846 1330 C 846.265 1330, 870.951 1329.764, 871.857 1328.672 C 872.622 1327.751, 872.658 1326.297, 871.976 1323.922 C 871.435 1322.040, 869.833 1315.325, 868.416 1309 C 866.999 1302.675, 865.131 1296.713, 864.265 1295.750 C 862.780 1294.101, 855.275 1294, 733.568 1294 C 620.097 1294, 604.184 1294.183, 602.292 1295.508 M 910.117 1295.631 C 906.171 1298.395, 898.150 1311.799, 895.586 1319.916 C 890.633 1335.595, 891.294 1347.051, 898.996 1379 C 901.184 1388.075, 906.236 1409.338, 910.223 1426.250 C 914.210 1443.162, 917.756 1457, 918.103 1457 C 919.388 1457, 924.248 1448.579, 926.678 1442.143 C 934.882 1420.407, 935.857 1393.138, 929.329 1368 C 927.972 1362.775, 925.495 1353.325, 923.825 1347 C 918.971 1328.624, 918.855 1307.880, 923.538 1295.750 C 924.135 1294.205, 923.524 1294, 918.329 1294 C 914.508 1294, 911.629 1294.572, 910.117 1295.631 M 979.812 1295.207 C 976.999 1297.363, 975 1307.754, 975 1320.225 C 975 1332.631, 976.641 1343.108, 982.355 1367.193 C 991.272 1404.778, 989.840 1423.931, 975.574 1457.823 C 974.158 1461.187, 973 1464.315, 973 1464.774 C 973 1465.233, 1012.527 1465.584, 1060.837 1465.554 L 1148.673 1465.500 1154.587 1461.620 C 1166.797 1453.609, 1186.074 1438.674, 1185.258 1437.858 C 1184.792 1437.392, 1143.706 1436.896, 1093.955 1436.755 L 1003.500 1436.500 1003.607 1432 C 1003.665 1429.525, 1004.065 1421.650, 1004.495 1414.500 C 1005.504 1397.722, 1003.253 1378.527, 998.437 1362.855 C 998.160 1361.951, 998.655 1360.488, 999.537 1359.605 C 1000.995 1358.148, 1013.716 1357.996, 1137.821 1357.951 L 1274.500 1357.902 1284.734 1346.330 C 1290.363 1339.965, 1294.724 1334.362, 1294.425 1333.878 C 1294.117 1333.380, 1228.162 1333, 1141.976 1333 C 992.815 1333, 990.052 1332.965, 989.035 1331.066 C 987.476 1328.153, 987.821 1314.294, 989.621 1307.500 C 990.496 1304.200, 991.276 1299.925, 991.356 1298 L 991.500 1294.500 986.500 1294.207 C 983.514 1294.031, 980.820 1294.434, 979.812 1295.207 M 931.075 1296.750 C 927.678 1299.519, 925.657 1308.919, 925.752 1321.500 C 925.822 1330.563, 926.404 1334.614, 929.057 1344.500 C 937.906 1377.472, 939.459 1387.764, 938.712 1408.494 C 938.048 1426.925, 935.469 1437.360, 927.527 1453.750 L 922.076 1465 940.788 1465.200 C 964.687 1465.455, 964.990 1465.438, 966.621 1463.807 C 968.677 1461.751, 975.798 1443.781, 978.829 1433 C 981.285 1424.266, 981.496 1422.049, 981.454 1405.500 C 981.414 1390.347, 981.048 1385.997, 979.136 1378 C 969.126 1336.136, 967.193 1319.990, 970.396 1305 C 971.277 1300.875, 971.999 1296.938, 971.999 1296.250 C 972 1295.293, 967.456 1295, 952.611 1295 C 935.629 1295, 932.955 1295.217, 931.075 1296.750 M 591.661 1340.259 C 590.539 1341.079, 589.235 1344.999, 587.919 1351.509 C 586.808 1357.004, 585.180 1363.814, 584.301 1366.642 C 583.422 1369.470, 582.981 1372.507, 583.320 1373.392 C 583.883 1374.859, 596.892 1374.999, 732.219 1374.985 C 820.621 1374.976, 881.087 1374.598, 881.953 1374.050 C 883.196 1373.264, 882.942 1371.194, 880.203 1359.739 C 878.441 1352.373, 877 1345.593, 877 1344.673 C 877 1343.753, 876.100 1342.100, 875 1341 C 873.019 1339.019, 871.667 1339, 733.191 1339 C 622.393 1339, 593.025 1339.261, 591.661 1340.259 M 581.262 1385.529 C 579.982 1386.426, 578.826 1388.595, 578.466 1390.779 C 578.129 1392.825, 576.732 1399.132, 575.363 1404.793 C 573.993 1410.455, 573.014 1416.080, 573.186 1417.293 L 573.500 1419.500 732.780 1419.753 C 880.282 1419.987, 892.107 1419.884, 892.696 1418.349 C 893.046 1417.438, 892.869 1414.624, 892.303 1412.096 C 887.638 1391.260, 886.570 1387.287, 885.224 1385.750 C 883.776 1384.098, 875.290 1384, 733.568 1384 C 600.489 1384, 583.197 1384.174, 581.262 1385.529 M 570.132 1430.868 C 569.027 1431.973, 567.988 1434.936, 567.591 1438.118 C 567.221 1441.078, 565.829 1447.775, 564.498 1453 C 562.447 1461.053, 562.288 1462.710, 563.451 1463.876 C 564.607 1465.035, 591.512 1465.228, 733.639 1465.099 C 839.732 1465.003, 902.810 1464.590, 903.412 1463.988 C 904.023 1463.377, 903.401 1459.129, 901.696 1452.265 C 900.225 1446.344, 898.741 1439.809, 898.398 1437.741 C 898.055 1435.674, 896.892 1432.862, 895.814 1431.491 L 893.855 1429 732.927 1429 C 577.114 1429, 571.941 1429.059, 570.132 1430.868 M 4.323 1605.821 C 1.495 1608.646, 3.281 1610.515, 10.167 1611.937 C 16.370 1613.218, 20.291 1616.271, 21.520 1620.774 C 22.761 1625.323, 23.245 1725.644, 22.101 1741.046 C 20.573 1761.609, 17.932 1766.216, 5.937 1769.241 C 0.896 1770.513, 0.477 1770.845, 0.187 1773.807 L -0.127 1777 27.330 1777 C 51.375 1777, 54.861 1776.805, 55.389 1775.428 C 56.467 1772.619, 54.262 1770.298, 49.848 1769.592 C 44.378 1768.717, 38.731 1765.509, 36.756 1762.156 C 33.257 1756.215, 32.906 1748.834, 33.206 1687.500 L 33.500 1627.500 59.909 1698 C 74.435 1736.775, 87.226 1769.513, 88.334 1770.750 C 90.864 1773.575, 97.160 1773.840, 99.769 1771.231 C 100.742 1770.258, 113.455 1737.593, 128.019 1698.643 L 154.500 1627.824 155.151 1636.162 C 155.509 1640.748, 155.846 1670.735, 155.901 1702.800 C 155.986 1752.978, 155.790 1761.506, 154.490 1764.020 C 152.551 1767.768, 150.332 1768.907, 143.248 1769.786 C 137.665 1770.479, 137.491 1770.593, 137.187 1773.750 L 136.873 1777 170.820 1777 C 203.657 1777, 204.783 1776.936, 205.278 1775.046 C 206.095 1771.921, 203.896 1770.283, 198.014 1769.639 C 191.524 1768.928, 187.894 1766.528, 186.774 1762.209 C 186.327 1760.482, 186.082 1727.338, 186.230 1688.556 L 186.500 1618.045 189.035 1615.510 C 190.811 1613.735, 193.454 1612.644, 197.862 1611.867 C 204.265 1610.740, 206.198 1609.099, 204.409 1606.311 C 203.671 1605.161, 199.024 1604.866, 179.726 1604.743 L 155.953 1604.593 153.628 1607.046 C 152.349 1608.396, 149.145 1615.350, 146.508 1622.500 C 133.661 1657.327, 105.761 1730.593, 105.077 1731.299 C 104.651 1731.738, 102.927 1728.363, 101.246 1723.799 C 79.878 1665.787, 57.645 1607.224, 56.587 1606.162 C 54.645 1604.215, 6.247 1603.899, 4.323 1605.821 M 1066.949 1605.450 C 1065.425 1606.976, 1065.854 1609.854, 1067.750 1610.829 C 1068.713 1611.324, 1071.430 1611.974, 1073.788 1612.274 C 1079.636 1613.018, 1082.705 1615.274, 1083.945 1619.741 C 1085.369 1624.871, 1085.379 1757.094, 1083.956 1762.221 C 1082.616 1767.045, 1079.975 1768.790, 1072.783 1769.604 C 1068.643 1770.072, 1066.646 1770.792, 1065.967 1772.061 C 1064.866 1774.119, 1065.669 1776.988, 1067.357 1777.026 C 1084.867 1777.418, 1134.699 1776.701, 1135.352 1776.048 C 1135.848 1775.552, 1135.979 1774.053, 1135.644 1772.717 C 1135.104 1770.566, 1134.319 1770.215, 1128.767 1769.641 C 1122.107 1768.953, 1118.336 1766.922, 1116.256 1762.904 C 1115.334 1761.122, 1115.076 1753.382, 1115.256 1733 L 1115.500 1705.500 1130.500 1704.832 C 1152.842 1703.838, 1165.099 1701.517, 1175.298 1696.349 C 1191.067 1688.358, 1198.961 1671.379, 1197.754 1648.050 C 1196.522 1624.236, 1183.653 1610.993, 1157.421 1606.547 C 1146.896 1604.763, 1068.584 1603.813, 1066.949 1605.450 M 1116.750 1613.013 C 1115.129 1614.019, 1115 1617.159, 1115 1655.668 L 1115 1697.236 1127.750 1696.773 C 1143.700 1696.193, 1149.694 1694.173, 1156.246 1687.168 C 1161.814 1681.216, 1164.661 1673.815, 1166.031 1661.734 C 1167.236 1651.114, 1166.695 1644.336, 1163.865 1634.615 C 1161.274 1625.714, 1154.477 1618.473, 1145.469 1615.018 C 1138.626 1612.393, 1119.860 1611.083, 1116.750 1613.013 M 390.199 1654.435 C 386.183 1655.201, 379.658 1657.378, 375.699 1659.274 C 363.728 1665.007, 357.070 1673.399, 357.022 1682.816 C 356.983 1690.379, 359.183 1692.484, 368.757 1694.042 C 375.280 1695.103, 380.788 1693.997, 383.411 1691.098 C 384.420 1689.983, 385.764 1685.505, 386.637 1680.344 C 388.371 1670.100, 391.026 1663.868, 394.676 1661.476 C 396.094 1660.547, 399.785 1659.582, 402.877 1659.331 C 410.567 1658.707, 414.721 1660.929, 417.917 1667.375 C 420.065 1671.710, 420.384 1673.932, 420.794 1687.398 C 421.161 1699.476, 420.975 1702.770, 419.877 1703.660 C 419.120 1704.274, 413.100 1705.296, 406.500 1705.931 C 390.830 1707.440, 381.147 1709.485, 372.316 1713.150 C 362.808 1717.096, 356.897 1722.433, 352.787 1730.782 C 349.820 1736.808, 349.507 1738.288, 349.573 1745.979 C 349.738 1765.160, 359.961 1777.381, 377.892 1779.834 C 390.440 1781.550, 404.687 1777.132, 415.423 1768.195 C 418.131 1765.940, 420.667 1764.294, 421.058 1764.536 C 421.449 1764.778, 422.082 1767.062, 422.465 1769.613 C 423.416 1775.960, 426.571 1779, 432.205 1778.999 C 437.404 1778.998, 457.588 1777.210, 460.813 1776.465 C 462.642 1776.042, 463.061 1775.361, 462.813 1773.215 C 462.559 1771.015, 461.931 1770.445, 459.500 1770.210 C 454.915 1769.766, 451.053 1767.952, 449.712 1765.613 C 448.819 1764.056, 448.485 1752.585, 448.445 1722 C 448.386 1677.847, 448.172 1675.535, 443.396 1667.284 C 438.029 1658.012, 428.341 1654.055, 409.500 1653.437 C 401.801 1653.185, 394.883 1653.543, 390.199 1654.435 M 544.487 1654.799 C 536.593 1657.528, 530.756 1661.416, 524.650 1668.011 L 519 1674.114 518.985 1665.307 C 518.976 1660.463, 518.562 1655.856, 518.063 1655.068 C 517.281 1653.832, 514.441 1653.814, 497.360 1654.933 C 486.472 1655.646, 476.987 1656.452, 476.282 1656.722 C 474.642 1657.351, 474.622 1660.458, 476.250 1661.740 C 476.938 1662.281, 478.850 1663.027, 480.500 1663.397 C 486.234 1664.682, 488.835 1666.187, 489.943 1668.863 C 490.723 1670.746, 490.974 1685.571, 490.779 1718.173 C 490.458 1771.724, 491.155 1768.063, 480.886 1770.184 C 475.070 1771.386, 473.554 1772.675, 474.638 1775.500 C 475.132 1776.787, 479.446 1777, 505 1777 C 530.554 1777, 534.868 1776.787, 535.362 1775.500 C 536.431 1772.714, 534.924 1771.307, 529.153 1769.702 C 518.964 1766.870, 519.499 1769.203, 519.504 1727.644 C 519.508 1692.443, 519.567 1691.354, 521.767 1685.908 C 526.357 1674.543, 534.755 1665.887, 542.622 1664.411 C 544.487 1664.061, 548.130 1664.092, 550.717 1664.480 C 556.667 1665.372, 562.281 1670.615, 563.958 1676.844 C 565.724 1683.404, 566.773 1714.868, 566.103 1741.224 C 565.409 1768.536, 565.501 1768.273, 555.852 1770.446 C 551.186 1771.497, 550.500 1771.962, 550.500 1774.076 L 550.500 1776.500 579.935 1776.765 C 596.791 1776.917, 609.760 1776.640, 610.284 1776.116 C 612.322 1774.078, 609.969 1771.170, 605.708 1770.463 C 600.413 1769.583, 596.474 1767.596, 595.449 1765.287 C 595.012 1764.304, 594.344 1744.825, 593.963 1722 C 593.309 1682.738, 593.155 1680.196, 591.103 1674.855 C 588.486 1668.041, 584.296 1662.059, 579.997 1658.998 C 571.966 1653.279, 554.764 1651.245, 544.487 1654.799 M 691 1654.826 C 682.712 1657.586, 679.655 1659.455, 672.520 1666.130 L 666 1672.229 665.811 1668.365 C 665.708 1666.239, 665.557 1662.362, 665.477 1659.749 C 665.397 1657.136, 665.034 1654.701, 664.670 1654.337 C 663.984 1653.651, 626.879 1655.752, 623.692 1656.658 C 622.425 1657.018, 621.976 1657.951, 622.192 1659.776 C 622.451 1661.968, 623.257 1662.573, 627.278 1663.594 C 633.853 1665.263, 636.611 1667.304, 637.361 1671.057 C 638.455 1676.524, 638.087 1759.148, 636.951 1763.238 C 635.783 1767.443, 633.790 1768.818, 626.519 1770.432 C 622.145 1771.404, 621.500 1771.865, 621.500 1774.023 L 621.500 1776.500 651.137 1776.765 C 676.851 1776.994, 680.852 1776.829, 681.356 1775.515 C 682.306 1773.039, 680.953 1771, 678.361 1771 C 677.027 1771, 674.359 1770.341, 672.432 1769.536 C 666.115 1766.896, 665.829 1765.069, 665.857 1727.408 C 665.873 1705.584, 666.277 1692.665, 667.033 1689.826 C 670.079 1678.372, 679.200 1667.100, 687.155 1664.958 C 695.279 1662.771, 703.173 1666.978, 706.489 1675.263 C 709.171 1681.963, 710.542 1712.710, 709.427 1741.172 C 708.528 1764.126, 708.428 1764.920, 706.114 1767.381 C 704.544 1769.050, 702.150 1770.151, 699.114 1770.598 C 694.066 1771.342, 692.990 1772.245, 693.739 1775.111 C 694.210 1776.909, 695.649 1777, 723.683 1777 L 753.133 1777 752.816 1774.339 C 752.550 1772.098, 751.634 1771.385, 747.006 1769.817 C 736.939 1766.407, 737.545 1768.880, 737.191 1729.723 C 736.841 1690.907, 737.280 1687.519, 744.011 1677.104 C 748.448 1670.239, 752.880 1666.615, 758.750 1665.054 C 766.067 1663.107, 774.172 1666.565, 777.535 1673.069 C 780.154 1678.131, 781.175 1695.879, 780.831 1730.320 C 780.579 1755.600, 780.183 1764.056, 779.170 1765.835 C 777.683 1768.444, 772.403 1771, 768.501 1771 C 765.669 1771, 764.160 1773.445, 765.591 1775.713 C 766.349 1776.915, 771.227 1777.144, 795 1777.096 C 810.675 1777.064, 823.789 1777.029, 824.143 1777.019 C 825.202 1776.988, 825.979 1774.108, 825.362 1772.500 C 825.032 1771.640, 823.539 1771, 821.861 1771 C 817.633 1771, 812.370 1768.535, 810.830 1765.835 C 809.811 1764.046, 809.364 1753.915, 808.918 1722.500 C 808.276 1677.304, 808.086 1675.819, 801.741 1666.375 C 795.336 1656.842, 783.998 1652.251, 769.589 1653.356 C 756.762 1654.339, 746.638 1660.245, 737.788 1671.908 L 735.202 1675.316 733.030 1671.059 C 730.091 1665.297, 723.465 1658.286, 718.545 1655.731 C 712.815 1652.755, 698.620 1652.289, 691 1654.826 M 876.500 1654.877 C 868.421 1656.874, 859.026 1660.980, 854.314 1664.574 C 850.470 1667.506, 846.131 1674.525, 844.916 1679.779 C 842.549 1690.010, 851.683 1696.661, 864.460 1694.008 C 871.859 1692.472, 873.440 1690.271, 874.820 1679.583 C 876.251 1668.499, 878.830 1663.434, 884.309 1660.947 C 891.928 1657.488, 901.055 1659.101, 904.617 1664.538 C 907.370 1668.740, 908.956 1678.407, 908.979 1691.128 C 908.994 1699.262, 908.625 1703.049, 907.750 1703.734 C 907.063 1704.273, 899.750 1705.450, 891.500 1706.350 C 860.722 1709.708, 847.383 1716.340, 840.157 1731.880 C 836.672 1739.374, 836.530 1751.649, 839.831 1760.079 C 848.876 1783.177, 879.178 1787.394, 902.370 1768.782 C 905.614 1766.178, 908.606 1764.256, 909.019 1764.512 C 909.432 1764.767, 910.082 1767.062, 910.465 1769.613 C 911.514 1776.609, 914.432 1779, 921.919 1779 C 931.448 1779, 948.371 1776.872, 949.853 1775.487 C 952.147 1773.344, 950.337 1770, 946.883 1770 C 943.204 1770, 938.527 1767.676, 937.397 1765.287 C 936.932 1764.304, 936.315 1743.475, 936.026 1719 C 935.449 1670.151, 935.572 1671.138, 929.113 1663.782 C 927.388 1661.817, 924.035 1659.296, 921.661 1658.181 C 910.881 1653.114, 889.858 1651.576, 876.500 1654.877 M 1029.707 1654.472 C 1023.890 1656.700, 1020.105 1659.584, 1012.784 1667.364 L 1006.069 1674.500 1006.019 1665.500 C 1005.992 1660.550, 1005.567 1655.865, 1005.076 1655.088 C 1004.309 1653.877, 1001.392 1653.864, 984.584 1654.994 C 964.128 1656.370, 962.203 1656.914, 963.485 1660.952 C 963.994 1662.557, 964.982 1663, 968.052 1663 C 970.966 1663, 972.804 1663.747, 975.234 1665.917 L 978.500 1668.834 978.788 1714.858 C 979.111 1766.538, 979.080 1766.815, 972.568 1769.536 C 970.641 1770.341, 967.748 1771, 966.139 1771 C 963.088 1771, 961.630 1772.874, 962.638 1775.500 C 963.133 1776.788, 967.513 1777, 993.607 1777 L 1024 1777 1024 1774.107 C 1024 1770.880, 1022.594 1770, 1017.434 1770 C 1015.088 1770, 1013.017 1769.094, 1010.766 1767.083 L 1007.500 1764.167 1007.190 1733.333 C 1006.847 1699.190, 1007.648 1689.601, 1011.477 1682.046 C 1014.512 1676.057, 1020.323 1670, 1023.033 1670 C 1025.670 1670, 1028.684 1673.169, 1030.598 1677.954 C 1031.463 1680.114, 1033.241 1682.583, 1034.550 1683.441 C 1039.796 1686.878, 1051.982 1684.010, 1055.601 1678.486 C 1057.947 1674.906, 1057.933 1667.474, 1055.571 1662.661 C 1052.800 1657.012, 1047.421 1653.856, 1039.780 1653.396 C 1035.826 1653.158, 1032.095 1653.557, 1029.707 1654.472 M 1250.808 1654.547 C 1243.810 1656.244, 1232.785 1661.164, 1228.280 1664.600 C 1223.752 1668.054, 1220.318 1673.504, 1219.041 1679.264 C 1216.874 1689.040, 1222.066 1694.099, 1234.544 1694.369 C 1244.842 1694.592, 1246.139 1692.966, 1249.404 1675.743 C 1250.232 1671.375, 1251.840 1666.629, 1253.086 1664.880 C 1259.083 1656.457, 1274.562 1657.217, 1279.204 1666.162 C 1282.376 1672.273, 1284.392 1698.531, 1282.029 1702.946 C 1281.274 1704.357, 1279.330 1704.906, 1273.279 1705.419 C 1238.152 1708.399, 1221.849 1715.427, 1214.270 1730.858 C 1211.853 1735.781, 1211.505 1737.647, 1211.536 1745.500 C 1211.596 1760.475, 1217.392 1771.109, 1228.438 1776.513 C 1243.427 1783.847, 1263.753 1780.119, 1277.841 1767.453 L 1282.893 1762.911 1283.522 1766.706 C 1285.148 1776.507, 1287.715 1779, 1296.183 1779 C 1305.728 1779, 1322.412 1776.902, 1323.853 1775.520 C 1326.136 1773.331, 1324.344 1770, 1320.883 1770 C 1315.737 1770, 1312.198 1767.450, 1310.959 1762.849 C 1310.206 1760.051, 1309.945 1746.541, 1310.154 1721.106 C 1310.488 1680.508, 1310.030 1675.339, 1305.386 1667.284 C 1301.286 1660.172, 1295.360 1656.935, 1281.201 1654.072 C 1273.981 1652.612, 1257.741 1652.866, 1250.808 1654.547 M 215.250 1657.031 C 214.012 1657.529, 213 1658.363, 213 1658.886 C 213 1661.286, 214.397 1663, 216.357 1663.004 C 219.184 1663.009, 224.501 1666.309, 226.433 1669.258 C 227.281 1670.552, 234.718 1688.346, 242.959 1708.800 C 251.201 1729.253, 260.529 1751.954, 263.689 1759.244 C 268.989 1771.470, 269.436 1773.083, 269.442 1780 C 269.448 1786.209, 268.986 1788.387, 266.758 1792.651 C 263.527 1798.834, 259.792 1802, 255.728 1802 C 254.077 1802, 248.753 1801.471, 243.897 1800.824 C 237.124 1799.923, 234.464 1799.923, 232.481 1800.827 C 228.977 1802.423, 226.673 1808.249, 227.235 1814.094 C 228.097 1823.070, 234.249 1828, 244.585 1828 C 254.692 1828, 261.963 1822.834, 268.335 1811.126 C 269.803 1808.428, 277.993 1787.834, 286.535 1765.361 C 295.077 1742.887, 304.806 1717.300, 308.155 1708.500 C 320.502 1676.054, 326.097 1666.794, 335.175 1663.781 C 338.670 1662.621, 339.561 1661.833, 339.816 1659.673 L 340.133 1657 316.035 1657 C 295.078 1657, 291.859 1657.204, 291.336 1658.567 C 290.461 1660.848, 292.320 1662.230, 298.250 1663.709 C 305.172 1665.436, 309 1669.469, 309 1675.034 C 309 1677.236, 307.426 1683.866, 305.502 1689.768 C 299.136 1709.300, 286.208 1743.507, 285.347 1743.100 C 283.445 1742.201, 260 1676.155, 260 1671.697 C 260 1667.586, 262.054 1665.542, 268.333 1663.402 C 273.738 1661.560, 274.707 1658.599, 270.435 1656.975 C 267.211 1655.750, 218.315 1655.799, 215.250 1657.031 M 1411.324 1657.819 C 1409.492 1659.651, 1411.394 1662.993, 1414.285 1663.022 C 1417.832 1663.057, 1424.731 1666.628, 1426.063 1669.118 C 1426.737 1670.377, 1427.240 1674.220, 1427.182 1677.657 C 1427.090 1683.010, 1425.454 1688.288, 1415.790 1714.406 C 1409.583 1731.181, 1404.225 1744.589, 1403.882 1744.202 C 1402.939 1743.138, 1380.160 1678.666, 1379.169 1674.256 C 1378.016 1669.126, 1379.129 1666.570, 1383.159 1665.094 C 1389.513 1662.767, 1391.500 1661.425, 1391.500 1659.462 C 1391.500 1657.564, 1390.555 1657.491, 1362.566 1657.234 C 1346.006 1657.082, 1333.240 1657.360, 1332.716 1657.884 C 1331.234 1659.366, 1332.939 1663, 1335.117 1663 C 1338.182 1663, 1342.627 1665.668, 1344.915 1668.881 C 1346.055 1670.482, 1355.038 1691.751, 1364.876 1716.146 C 1374.715 1740.541, 1383.983 1763.200, 1385.472 1766.500 C 1389.321 1775.032, 1389.765 1781.994, 1386.939 1789.500 C 1385.697 1792.800, 1383.222 1796.963, 1381.440 1798.750 C 1377.738 1802.464, 1376.363 1802.617, 1362.897 1800.824 C 1356.124 1799.923, 1353.464 1799.923, 1351.481 1800.827 C 1347.920 1802.449, 1345.673 1808.241, 1346.254 1814.296 C 1347.109 1823.193, 1353.077 1827.996, 1363.283 1827.998 C 1373.167 1828.001, 1379.875 1823.408, 1386.819 1811.884 C 1388.953 1808.342, 1406.958 1762.383, 1419.570 1728.286 C 1438.473 1677.179, 1443.844 1667.209, 1454.353 1663.722 C 1457.672 1662.620, 1458.563 1661.812, 1458.816 1659.673 C 1459.017 1657.981, 1458.649 1656.987, 1457.816 1656.963 C 1433.668 1656.292, 1412.462 1656.683, 1411.324 1657.819 M 406.500 1712.644 C 393.050 1715.490, 384.748 1720.943, 380.871 1729.478 C 378.497 1734.704, 378.400 1747.230, 380.670 1755.321 C 387.068 1778.123, 414.102 1771.892, 419.510 1746.370 C 420.338 1742.461, 420.973 1734.035, 420.983 1726.821 C 421.006 1709.836, 420.787 1709.621, 406.500 1712.644 M 893.324 1712.968 C 884.309 1715.360, 880.915 1717.116, 875.301 1722.290 C 868.204 1728.832, 866.516 1732.904, 866.507 1743.500 C 866.501 1751.378, 866.855 1753.223, 869.348 1758.301 C 873.373 1766.497, 877.929 1769.390, 885.902 1768.813 C 895.595 1768.112, 902.398 1762.057, 906.570 1750.417 C 908.899 1743.917, 909.760 1717.784, 907.770 1714 C 906.065 1710.760, 902.584 1710.511, 893.324 1712.968 M 1267.347 1712.985 C 1257.641 1715.530, 1253.273 1717.932, 1247.893 1723.684 C 1241.678 1730.328, 1239.676 1735.912, 1240.149 1745.282 C 1240.854 1759.238, 1248.184 1769.024, 1257.898 1768.978 C 1267.427 1768.933, 1275.898 1762.183, 1279.982 1751.381 C 1281.901 1746.305, 1282.226 1743.365, 1282.353 1729.914 C 1282.548 1709.298, 1282.334 1709.057, 1267.347 1712.985" stroke="none" fill="#16449b" fill-rule="evenodd"/><path d="M 703.500 143.125 C 583.128 147.146, 456.544 184.933, 351.849 248.097 C 261.773 302.441, 177.984 383.206, 118.525 473 C 52.806 572.249, 15.904 679.335, 3.429 807 C 1.249 829.317, 0.407 886.400, 1.911 910.048 C 9.363 1027.278, 42.754 1135.720, 102.200 1235.750 L 110.074 1249 352.287 1249.015 C 490.118 1249.024, 595.099 1249.410, 595.891 1249.911 C 597.898 1251.182, 595.387 1269.239, 592.734 1272.611 L 590.855 1275 359.371 1275 L 127.887 1275 129.693 1278.059 C 132.921 1283.524, 148.987 1305.142, 160.296 1319.237 L 171.339 1333 324.098 1333 C 466.111 1333, 476.976 1332.881, 478.545 1331.312 C 481.154 1328.703, 480.208 1308.381, 477.161 1301.572 C 474.427 1295.464, 475.151 1294.556, 482.776 1294.524 C 488.363 1294.501, 488.542 1294.586, 490.259 1298.096 C 491.226 1300.074, 492.496 1305.474, 493.081 1310.096 C 494.860 1324.153, 492.924 1339.617, 486.001 1366.658 C 479.493 1392.080, 478.731 1407.769, 483 1428.500 C 484.926 1437.850, 489.844 1452.787, 493.112 1459.210 C 496.884 1466.622, 504.715 1465.996, 407.750 1466.033 C 307.152 1466.072, 316.570 1464.512, 337.353 1477.688 C 429.953 1536.394, 531.659 1573.399, 637.500 1586.894 C 670.607 1591.115, 691.863 1592.362, 731 1592.379 C 791.887 1592.405, 842.037 1587.251, 895.094 1575.514 C 978.530 1557.056, 1066.229 1520.416, 1133 1476.120 L 1147.500 1466.500 1114 1465.763 C 1095.575 1465.357, 1056.313 1465.297, 1026.750 1465.629 C 986.640 1466.080, 973 1465.943, 973 1465.087 C 973 1464.456, 974.158 1461.187, 975.574 1457.823 C 983.546 1438.884, 986.967 1426.057, 987.693 1412.394 C 988.416 1398.775, 986.998 1386.760, 982.355 1367.193 C 974.667 1334.790, 973.062 1316.627, 976.630 1302.421 C 978.515 1294.918, 979.949 1293.757, 986.784 1294.197 C 991.481 1294.499, 991.499 1294.514, 991.356 1298 C 991.276 1299.925, 990.496 1304.200, 989.621 1307.500 C 987.697 1314.763, 987.476 1328.910, 989.250 1331.307 C 990.414 1332.879, 1001.066 1332.997, 1143.445 1333.017 L 1296.391 1333.038 1303.288 1324.769 C 1314.027 1311.894, 1325.044 1297.479, 1332.917 1286 L 1340.118 1275.500 1108.180 1275.248 C 914.417 1275.037, 876.056 1274.773, 875.116 1273.640 C 873.720 1271.957, 870 1257.651, 870 1253.962 C 870 1252.468, 870.626 1250.725, 871.391 1250.090 C 873.185 1248.602, 1353.904 1248.504, 1355.392 1249.992 C 1356.614 1251.214, 1360.079 1246.079, 1371.917 1225.500 C 1427.109 1129.564, 1458.414 1025.052, 1465.971 911.500 C 1467.261 892.111, 1467.265 838.627, 1465.978 820 C 1461.561 756.089, 1449.370 696.022, 1428.397 634.844 C 1384.433 506.595, 1310.536 399.777, 1205.260 312.299 C 1139.582 257.726, 1065.409 214.892, 986.798 186.140 C 943.823 170.423, 891.903 157.515, 844 150.638 C 812.927 146.178, 776.008 143.028, 754.596 143.010 L 742.691 143 743.360 156.250 C 743.728 163.537, 744.278 177.600, 744.582 187.500 C 745.206 207.789, 744.847 209.342, 738.852 212.280 C 734.063 214.626, 727.551 213.325, 724.109 209.333 C 721.447 206.246, 721.467 211.480, 723.913 158.500 C 724.294 150.250, 724.357 143.265, 724.053 142.978 C 723.749 142.692, 714.500 142.758, 703.500 143.125 M 716.213 219.507 C 713.437 220.713, 710 225.670, 710 228.468 C 710 228.761, 720.834 229, 734.075 229 L 758.150 229 755.820 224.777 C 754.539 222.455, 752.368 219.986, 750.996 219.292 C 747.346 217.446, 720.576 217.611, 716.213 219.507 M 709.531 239.750 C 712.758 247.523, 712.807 247.538, 733.279 247.193 C 743.301 247.024, 752.246 246.670, 753.158 246.405 C 754.509 246.013, 759 238.407, 759 236.511 C 759 236.230, 747.519 236, 733.487 236 L 707.973 236 709.531 239.750 M 719.200 254.200 C 718.540 254.860, 718 257.245, 718 259.500 C 718 261.755, 718.540 264.140, 719.200 264.800 C 720.463 266.063, 744.364 266.565, 747.418 265.393 C 749.349 264.652, 749.643 256.043, 747.800 254.200 C 746.989 253.389, 742.356 253, 733.500 253 C 724.644 253, 720.011 253.389, 719.200 254.200 M 721.004 271.742 C 716.539 272.280, 715.401 273.275, 712.342 279.313 L 709.839 284.251 713.623 288.125 L 717.406 292 733.253 292 C 745.431 292, 749.775 291.650, 752.020 290.490 C 756.225 288.315, 757.294 285.805, 756.024 281.090 C 754.413 275.108, 752.051 272.851, 746.435 271.929 C 741.364 271.097, 727.215 270.993, 721.004 271.742 M 705.394 299.416 C 705.095 300.194, 704.997 302.107, 705.175 303.666 L 705.500 306.500 732.878 306.766 C 761.684 307.047, 763 306.864, 763 302.578 C 763 298.144, 762.064 298, 733.269 298 C 710.621 298, 705.844 298.243, 705.394 299.416 M 705.390 314.427 C 705.088 315.212, 704.990 316.900, 705.171 318.177 L 705.500 320.500 733.775 320.766 C 764.543 321.055, 764.008 321.152, 762.589 315.498 L 761.962 313 733.950 313 C 710.607 313, 705.846 313.238, 705.390 314.427 M 711.096 328.820 C 709.946 330.969, 704 345.827, 704 346.552 C 704 346.827, 705.462 346.288, 707.250 345.355 C 712.758 342.481, 718.764 343.001, 724.805 346.876 C 729.249 349.727, 730.733 350.178, 734.336 349.771 C 736.684 349.507, 740.430 348.082, 742.662 346.605 C 748.848 342.511, 752.984 342.214, 758.531 345.465 C 761.075 346.956, 763.340 347.993, 763.564 347.769 C 764.061 347.273, 757.148 330.003, 755.751 328.250 C 755.010 327.320, 749.289 327, 733.413 327 C 713.798 327, 711.992 327.147, 711.096 328.820 M 712.667 349.667 C 712.300 350.033, 712 356.060, 712 363.060 C 712 376.915, 712.037 377, 718.017 377 C 722.502 377, 726.249 375.154, 729.317 371.432 C 732.631 367.411, 733.425 367.256, 735.760 370.175 C 740.554 376.166, 741.852 377, 746.389 377 C 748.854 377, 751.987 376.575, 753.352 376.056 C 755.772 375.136, 755.836 374.846, 755.919 364.490 C 756.059 347.161, 755.531 346.611, 744.431 352.500 C 739.667 355.027, 736.564 356, 733.263 356 C 729.898 356, 727.041 355.077, 722.434 352.500 C 716.239 349.036, 713.959 348.374, 712.667 349.667 M 730.829 379.768 C 729.448 381.271, 727.339 384.141, 726.142 386.147 C 723.628 390.357, 720.798 392.446, 716.254 393.444 L 713.036 394.151 715.028 398.055 C 718.039 403.957, 720.526 404.758, 734.833 404.437 C 745.121 404.205, 747.501 403.856, 749.186 402.332 C 753.521 398.408, 755.107 391.977, 751.387 393.405 C 748.837 394.384, 745.572 391.974, 740.652 385.481 C 733.936 376.617, 733.799 376.537, 730.829 379.768 M 705.620 387.322 C 701.226 391.467, 701.078 393.742, 704.962 397.463 L 707.923 400.300 707.393 396.900 C 707.093 394.973, 707.548 391.591, 708.443 389.094 C 709.311 386.671, 709.846 384.512, 709.631 384.298 C 709.416 384.083, 707.612 385.444, 705.620 387.322 M 758.634 387.665 C 759.480 389.692, 760.022 393.234, 759.837 395.535 C 759.512 399.573, 759.573 399.671, 761.585 398.353 C 762.731 397.602, 764.273 395.859, 765.010 394.481 C 766.239 392.186, 766.106 391.718, 763.425 388.902 C 761.816 387.211, 759.734 385.412, 758.797 384.904 C 757.210 384.043, 757.199 384.232, 758.634 387.665 M 691 397.965 C 691 401.678, 691.441 403.160, 692.750 403.845 C 694.574 404.799, 701.005 404.246, 700.994 403.137 C 700.982 402.040, 692.892 393, 691.922 393 C 691.415 393, 691 395.234, 691 397.965 M 770.250 397.936 C 767.913 400.650, 766 403.125, 766 403.436 C 766 404.663, 774.813 403.930, 775.907 402.612 C 777.063 401.220, 776.391 392.999, 775.122 393 C 774.780 393.001, 772.587 395.222, 770.250 397.936 M 692.046 411.445 C 691.386 412.240, 690.994 413.927, 691.173 415.195 L 691.500 417.500 733.631 417.761 C 773.466 418.007, 775.787 417.924, 776.231 416.223 C 776.490 415.235, 776.333 413.430, 775.883 412.213 L 775.064 410 734.155 410 C 699.703 410, 693.056 410.228, 692.046 411.445 M 706.509 425.234 C 706.267 425.930, 705.941 428.288, 705.784 430.474 L 705.500 434.449 711.500 435.271 C 720.858 436.553, 724.683 435.716, 729.082 431.420 L 732.908 427.684 736.957 431.342 L 741.006 435 750.984 435 C 760.935 435, 760.964 434.993, 761.625 432.360 C 761.989 430.907, 761.875 428.545, 761.370 427.110 L 760.453 424.500 733.701 424.234 C 712.823 424.026, 706.853 424.245, 706.509 425.234 M 725.402 444.189 C 718.286 451.650, 715.656 453.200, 712.284 451.918 C 706.758 449.817, 706.549 453.913, 711.884 459.750 L 715.769 464 732.803 464 C 742.171 464, 750.571 463.718, 751.469 463.374 C 753.275 462.681, 760 454.286, 760 452.725 C 760 452.149, 758.487 451.984, 756.359 452.329 C 751.702 453.085, 749.952 452.125, 741.847 444.368 C 738.188 440.865, 734.319 438, 733.249 438 C 732.168 438, 728.684 440.748, 725.402 444.189 M 698.052 446.036 C 694.723 448.807, 692 451.418, 692 451.840 C 692 453.388, 703.346 463, 705.174 463 C 705.671 463, 705.160 462.015, 704.039 460.811 C 700.929 457.473, 700.938 452.002, 704.064 445.875 C 707.449 439.239, 706.179 439.273, 698.052 446.036 M 712.015 442.184 C 712.048 445.004, 713.846 446.560, 715.722 445.391 C 718.381 443.733, 717.875 441.543, 714.750 441.184 C 712.977 440.980, 712.005 441.335, 712.015 442.184 M 749 441.845 C 749 442.310, 749.816 443.429, 750.814 444.331 C 752.213 445.597, 752.899 445.701, 753.814 444.786 C 755.935 442.665, 755.138 441, 752 441 C 750.350 441, 749 441.380, 749 441.845 M 762.497 443.657 C 766.733 453.634, 766.822 456.667, 763 460.770 C 760.047 463.940, 761.342 463.543, 767.675 459.340 C 770.707 457.327, 773.693 454.572, 774.310 453.218 C 775.304 451.038, 775.092 450.478, 772.466 448.323 C 770.835 446.985, 767.748 444.973, 765.607 443.852 C 761.954 441.939, 761.763 441.927, 762.497 443.657 M 679.478 453.263 C 679.131 455.117, 678.993 458.179, 679.173 460.067 L 679.500 463.500 687.336 463.794 C 691.998 463.968, 694.939 463.710, 694.596 463.156 C 694.280 462.643, 690.891 459.449, 687.066 456.058 L 680.111 449.892 679.478 453.263 M 780.723 455.940 C 777.025 459.399, 774 462.628, 774 463.115 C 774 463.602, 777.102 464, 780.893 464 C 786.256 464, 787.921 463.649, 788.393 462.418 C 789.152 460.441, 789.017 455.273, 788.123 452.076 C 787.467 449.729, 787.231 449.853, 780.723 455.940 M 680.054 471.435 C 679.399 472.224, 679.007 474.361, 679.182 476.185 L 679.500 479.500 733.436 479.759 C 775.921 479.963, 787.541 479.750, 788.170 478.759 C 789.371 476.868, 789.160 472.560, 787.800 471.200 C 786.897 470.297, 773.561 470, 733.922 470 C 689.384 470, 681.061 470.222, 680.054 471.435 M 700.515 487.366 C 698.464 488.865, 697.203 498.686, 698.432 503.584 C 699.054 506.063, 699.369 506.197, 703.161 505.590 C 705.395 505.233, 707.736 505.342, 708.362 505.833 C 708.988 506.324, 711.843 506.988, 714.707 507.310 C 719.204 507.816, 720.668 507.493, 725.438 504.948 C 732.136 501.374, 733.716 501.316, 739.838 504.418 C 746.617 507.853, 750.706 508.391, 755.929 506.536 C 759.413 505.298, 761.061 505.195, 763.659 506.052 C 765.475 506.652, 767.420 506.859, 767.980 506.512 C 769.069 505.839, 769.410 490.231, 768.393 487.582 C 767.857 486.184, 763.981 486, 735.084 486 C 709.024 486, 702.003 486.277, 700.515 487.366 M 725.082 514.523 C 717.893 520.659, 716.614 521.219, 710.684 520.834 C 704.109 520.406, 703.658 521.955, 708.507 528.305 C 713.940 535.420, 715.066 535.744, 734.341 535.730 C 753.234 535.717, 753.045 535.782, 760.014 526.982 C 762.597 523.721, 762.928 522.734, 762.013 521.024 C 761.140 519.394, 760.529 519.182, 759.024 519.987 C 754.656 522.325, 750.585 521.179, 743.089 515.500 C 734.012 508.623, 732.114 508.520, 725.082 514.523 M 696.500 512.975 C 693.263 514.349, 681.691 522.426, 681.306 523.581 C 680.493 526.022, 697.740 536, 702.775 536 C 705.456 536, 705.141 532.924, 702.106 529.468 C 698.649 525.531, 698.231 522.388, 700.563 517.879 C 701.781 515.522, 701.865 514.542, 700.940 513.428 C 699.604 511.818, 699.300 511.787, 696.500 512.975 M 766 514.378 C 766 515.136, 766.681 517.386, 767.513 519.378 C 768.817 522.498, 768.836 523.451, 767.651 526.250 C 766.895 528.038, 765.314 530.357, 764.138 531.405 C 762.962 532.453, 762 533.749, 762 534.287 C 762 536.200, 770.392 534.109, 777.907 530.324 C 788.109 525.186, 788.190 523.900, 778.700 517.750 C 771.456 513.055, 766 511.607, 766 514.378 M 794.038 526.516 C 788.284 530.507, 783.409 534.274, 783.205 534.886 C 782.611 536.668, 802.434 536.387, 803.923 534.592 C 804.639 533.730, 804.977 530.488, 804.796 526.222 L 804.500 519.260 794.038 526.516 M 663.667 521.667 C 662.393 522.940, 662.918 534.996, 664.250 535.067 C 678.344 535.824, 683.996 535.710, 683.965 534.672 C 683.936 533.682, 666.152 521, 664.793 521 C 664.540 521, 664.033 521.300, 663.667 521.667 M 664.623 542.191 C 662.654 543.293, 662.331 552.931, 664.200 554.800 C 665.936 556.536, 802.064 556.536, 803.800 554.800 C 805.383 553.217, 805.346 544.521, 803.750 543.246 C 802.122 541.945, 666.895 540.920, 664.623 542.191 M 730.364 561.750 C 694.986 561.978, 688.034 562.254, 687.022 563.473 C 685.343 565.496, 684.589 575.929, 685.881 579.250 C 686.798 581.608, 687.516 582, 690.916 582 C 693.097 582, 695.133 582.407, 695.441 582.904 C 695.748 583.401, 700.741 584.131, 706.536 584.526 C 718.634 585.350, 723.621 584.093, 728.517 578.982 C 731.987 575.361, 733.934 575.236, 736.947 578.444 C 741.918 583.735, 745.105 584.452, 763.151 584.342 C 772.309 584.286, 780.297 583.934, 780.901 583.561 C 781.573 583.146, 782 579.237, 782 573.498 C 782 564.934, 781.806 563.977, 779.777 562.557 C 778.555 561.701, 776.418 561.107, 775.027 561.239 C 773.637 561.370, 753.539 561.600, 730.364 561.750 M 721.523 593.153 C 708.198 605.265, 704.828 606.422, 698.653 601 C 696.774 599.350, 694.969 598, 694.644 598 C 693.394 598, 691 604.051, 691.004 607.200 C 691.008 611.198, 693.068 614.513, 700.750 622.885 L 706.608 629.270 731.554 629.337 C 755.246 629.401, 756.708 629.296, 760.628 627.244 C 765.438 624.727, 771.677 617.970, 775.034 611.641 C 777.389 607.202, 777.390 607.191, 775.523 603.050 C 774.494 600.769, 773.276 598.670, 772.815 598.386 C 772.355 598.101, 770.598 599.248, 768.912 600.934 C 765.307 604.539, 761.067 604.955, 756.500 602.151 C 754.850 601.138, 749.350 596.639, 744.279 592.154 C 739.207 587.669, 734.257 584.019, 733.279 584.042 C 732.300 584.065, 727.010 588.165, 721.523 593.153 M 682.500 591.011 C 678.790 592.651, 660.500 607.594, 660.500 608.985 C 660.500 610.480, 674.781 622.274, 681.895 626.654 C 686.209 629.310, 694.782 630.547, 696.562 628.770 C 696.964 628.369, 695.459 626.051, 693.217 623.620 C 684.350 614, 682.739 605.668, 687.957 596.421 C 690.444 592.015, 690.670 591.087, 689.376 590.591 C 687.306 589.796, 684.917 589.943, 682.500 591.011 M 777.828 590.674 C 776.380 591.057, 776.559 591.767, 779.158 595.947 C 785.002 605.349, 783.639 613.126, 774.419 622.983 C 771.822 625.759, 769.878 628.191, 770.099 628.387 C 770.319 628.583, 772.525 629.036, 775 629.394 C 780.703 630.218, 783.147 628.981, 797.261 618.132 C 804.703 612.411, 807.787 609.458, 807.261 608.555 C 806.411 607.097, 788.201 592.713, 785.110 591.059 C 783.107 589.987, 780.872 589.869, 777.828 590.674 M 700.555 593.250 C 702.345 599.089, 706.115 599.540, 711 594.500 L 714.392 591 707.129 591 C 700.058 591, 699.884 591.060, 700.555 593.250 M 755.535 594.037 C 757.135 595.707, 759.488 597.335, 760.763 597.655 C 763.490 598.340, 767 595.633, 767 592.845 C 767 591.223, 766.132 591, 759.813 591 L 752.626 591 755.535 594.037 M 636 614.031 C 636 624.530, 636.323 628.187, 637.284 628.555 C 637.990 628.826, 646.587 628.925, 656.388 628.774 L 674.209 628.500 655.653 614.250 C 645.448 606.413, 636.851 600, 636.549 600 C 636.247 600, 636 606.314, 636 614.031 M 811.781 614.156 L 793.062 628.500 811.208 628.773 C 821.188 628.924, 829.737 628.663, 830.206 628.194 C 830.675 627.725, 830.933 621.147, 830.779 613.576 L 830.500 599.811 811.781 614.156 M 638.223 636.557 C 636.406 637.829, 636 639.072, 636 643.366 C 636 649.346, 637.400 651.775, 641 652.038 C 642.375 652.139, 685.688 652.172, 737.250 652.111 L 831 652 831 644.700 C 831 640.356, 830.514 636.914, 829.800 636.200 C 828.884 635.284, 806.361 635, 734.523 635 C 650.993 635, 640.196 635.175, 638.223 636.557 M 670.315 659.007 C 669.114 659.491, 667.651 660.783, 667.065 661.878 C 665.842 664.164, 665.642 678.889, 666.810 680.727 C 667.849 682.363, 713.780 683.190, 719.349 681.673 C 722.005 680.949, 724.456 679.132, 727.255 675.812 C 729.487 673.165, 732.083 671, 733.024 671 C 733.964 671, 735.889 672.745, 737.301 674.879 C 738.834 677.196, 741.606 679.569, 744.184 680.772 C 748.248 682.668, 749.922 682.755, 772.805 682.259 C 802.385 681.618, 801.300 682.067, 801.838 670.220 C 802.054 665.468, 801.742 661.386, 801.065 660.122 L 799.930 658 736.215 658.063 C 701.172 658.098, 671.517 658.523, 670.315 659.007 M 720.072 693.536 C 713.323 701.560, 706.702 708.543, 705.359 709.054 C 703.995 709.572, 699.957 709.655, 696.209 709.241 C 689.846 708.538, 689.484 708.358, 689.184 705.750 C 689.010 704.237, 688.448 703, 687.935 703 C 686.466 703, 681.040 712.252, 681.019 714.793 C 680.993 717.947, 689.103 726.388, 694.820 729.155 C 699.007 731.182, 700.723 731.371, 712.972 731.153 C 721.937 730.994, 726.892 730.506, 727.661 729.706 C 728.567 728.765, 732 702.052, 732 695.943 C 732 695.241, 732.200 694.867, 732.445 695.112 C 733.093 695.760, 734.767 707.002, 735.903 718.330 C 736.445 723.737, 737.418 728.799, 738.066 729.580 C 739.786 731.652, 769.895 731.623, 773.911 729.546 C 777.698 727.588, 787 716.719, 787 714.252 C 787 713.165, 785.763 710.686, 784.250 708.743 C 782.737 706.800, 780.999 704.376, 780.387 703.355 C 779.387 701.688, 779.202 701.831, 778.556 704.758 C 777.503 709.533, 775.163 710.377, 766.860 708.976 C 758.776 707.613, 759.136 707.893, 744.396 691.500 C 738.461 684.900, 733.321 679.376, 732.974 679.224 C 732.627 679.072, 726.821 685.513, 720.072 693.536 M 591 706.482 C 591 724.533, 591.296 730.176, 592.261 730.547 C 592.954 730.813, 606.986 730.911, 623.442 730.765 L 653.363 730.500 623.510 707.500 C 607.092 694.850, 593.060 684.140, 592.329 683.700 C 591.239 683.044, 591 687.135, 591 706.482 M 844.781 706.786 L 814.061 730.500 844.160 730.765 C 865.533 730.953, 874.657 730.700, 875.630 729.892 C 876.717 728.990, 877 724.031, 877 705.878 C 877 693.295, 876.663 683.016, 876.250 683.036 C 875.837 683.056, 861.676 693.743, 844.781 706.786 M 660.410 690.843 C 657.611 692.387, 650.775 697.151, 645.220 701.429 L 635.119 709.208 639.810 712.771 C 642.389 714.731, 646.975 718.350, 650 720.814 C 658.973 728.124, 666.110 731.011, 675 730.929 C 686.778 730.820, 687.026 730.420, 679.488 723.679 C 675.920 720.487, 673 717.163, 673 716.291 C 673 715.420, 676.121 709.486, 679.937 703.104 C 689.899 686.439, 690.217 687.997, 676.857 688.018 C 666.305 688.035, 665.139 688.235, 660.410 690.843 M 695.750 689.118 C 694.430 689.858, 694.004 691.377, 694.015 695.300 C 694.024 698.160, 694.362 701.021, 694.768 701.658 C 695.955 703.524, 702.267 704.296, 704.153 702.806 C 705.921 701.409, 716 689.375, 716 688.660 C 716 687.764, 697.415 688.184, 695.750 689.118 M 750.951 689.907 C 752.465 692.731, 764.777 704, 766.348 704 C 770.963 704, 772.693 702.236, 773.327 696.884 C 774.276 688.874, 773.230 688.171, 760.478 688.250 C 751.301 688.306, 750.196 688.498, 750.951 689.907 M 781.797 688.658 L 779.095 689.124 782.186 694.312 C 783.887 697.165, 787.062 702.112, 789.242 705.305 C 791.422 708.498, 793.429 712.781, 793.703 714.823 C 794.171 718.309, 793.812 718.918, 787.851 724.762 L 781.500 730.988 791.500 730.972 C 803.411 730.953, 807.753 729.366, 815.469 722.212 C 818.265 719.621, 822.678 716.047, 825.276 714.271 C 831.542 709.987, 831.443 707.986, 824.750 703.699 C 821.862 701.850, 817.328 698.455, 814.673 696.154 C 807.013 689.517, 804.668 688.638, 794 688.403 C 788.775 688.287, 783.284 688.403, 781.797 688.658 M 738.791 737.752 C 738.207 738.455, 737.958 741.484, 738.222 744.668 C 739.059 754.760, 733.334 754, 808.539 754 C 866.586 754, 874.032 753.825, 875.429 752.429 C 877.436 750.422, 877.618 739.758, 875.673 738.143 C 873.627 736.445, 740.191 736.064, 738.791 737.752 M 591.667 737.667 C 591.300 738.033, 591 741.393, 591 745.131 C 591 750.829, 591.313 752.097, 592.934 752.965 C 595.973 754.591, 720.756 754.347, 723.995 752.708 C 725.869 751.760, 726.706 750.269, 727.354 746.722 C 727.828 744.124, 727.934 740.874, 727.589 739.499 L 726.962 737 659.648 737 C 622.625 737, 592.033 737.300, 591.667 737.667 M 727.129 801.284 C 721.991 850.948, 721.866 852.844, 723.516 856.113 C 725.802 860.647, 730.988 866, 733.093 866 C 735.185 866, 740.775 859.782, 742.592 855.435 C 743.755 852.651, 743.547 848.452, 741.030 823.862 C 739.433 808.263, 737.169 786.050, 736 774.500 C 734.830 762.950, 733.552 752.677, 733.161 751.671 C 732.770 750.665, 730.056 772.991, 727.129 801.284 M 634.323 760.506 C 633.233 761.303, 633.004 764.840, 633.223 777.506 L 633.500 793.500 670 793.751 L 706.500 794.003 714.045 786.751 C 718.194 782.763, 722.357 777.857, 723.295 775.849 C 725.640 770.827, 725.610 761.397, 723.244 760.131 C 720.813 758.829, 636.127 759.187, 634.323 760.506 M 742.680 760.159 C 740.502 761.378, 740.386 770.594, 742.484 775.616 C 743.300 777.570, 747.463 782.503, 751.734 786.578 L 759.500 793.987 796.191 793.994 C 822.399 793.998, 833.082 793.677, 833.581 792.870 C 834.511 791.364, 834.698 762.129, 833.787 760.654 C 832.885 759.195, 745.253 758.719, 742.680 760.159 M 743.437 791.037 C 743.781 793.492, 744.669 801.194, 745.411 808.153 C 746.963 822.703, 746.321 821.542, 759.993 834.532 C 851.713 921.673, 910.783 976.795, 914.022 978.268 C 916.160 979.240, 921.456 980.538, 925.791 981.151 C 936.711 982.695, 938.885 981.598, 940.682 973.634 C 942.839 964.079, 947.413 956.920, 959.778 943.747 C 975.035 927.494, 978.011 923.750, 977.941 920.897 C 977.854 917.368, 970.428 897.499, 969.660 898.741 C 969.299 899.325, 968.518 903.334, 967.924 907.651 C 967.331 911.968, 966.644 916.912, 966.398 918.639 C 965.860 922.416, 964.423 923.081, 950.500 925.995 C 945 927.146, 932.717 929.911, 923.204 932.140 C 913.690 934.370, 904.867 935.932, 903.595 935.613 C 902.323 935.294, 892.316 926.588, 881.357 916.266 C 851.342 887.998, 753.185 796.023, 747.657 790.986 L 742.813 786.573 743.437 791.037 M 711 797.623 C 705.225 803.102, 674.635 832.091, 643.022 862.042 C 611.409 891.994, 580.915 920.888, 575.258 926.250 C 567.873 933.250, 564.265 936, 562.467 936 C 558.139 936, 503.587 923.016, 502.235 921.664 C 501.470 920.898, 500.528 915.545, 499.913 908.461 C 498.953 897.412, 498.518 895.005, 497.674 896.083 C 497.494 896.312, 495.413 902.049, 493.050 908.831 C 489.653 918.578, 488.965 921.616, 489.768 923.331 C 490.326 924.524, 496.953 932.250, 504.495 940.500 C 522.234 959.906, 523.444 961.610, 525.535 970.145 C 528.070 980.486, 528.824 981, 541.465 981 C 553.879 981, 549.998 983.606, 579.500 955.458 C 590.500 944.963, 626.050 911.228, 658.500 880.491 C 690.950 849.754, 717.811 824.107, 718.191 823.497 C 719.174 821.919, 722.196 794.726, 721.817 790.874 L 721.500 787.662 711 797.623 M 539.232 813.750 L 539.500 837.500 573.750 837.763 C 592.587 837.908, 608 837.657, 608 837.206 C 608 836.396, 540.746 790, 539.572 790 C 539.237 790, 539.084 800.688, 539.232 813.750 M 892.765 813.349 C 874.211 826.082, 859.023 836.843, 859.015 837.263 C 859.007 837.683, 874.413 837.908, 893.250 837.763 L 927.500 837.500 927.768 813.750 C 927.916 800.688, 927.691 790.045, 927.268 790.099 C 926.846 790.154, 911.319 800.617, 892.765 813.349 M 624 801.493 C 618.752 803.077, 592.120 816.169, 592.049 817.199 C 591.953 818.567, 607.560 830.001, 613.543 832.947 C 623.780 837.986, 631.525 839.274, 646.722 838.465 C 653.994 838.078, 660.569 837.253, 661.333 836.631 C 662.097 836.009, 668.936 828.525, 676.529 820 C 684.122 811.475, 691.238 803.487, 692.342 802.250 L 694.349 800 661.424 800.067 C 636.713 800.117, 627.377 800.473, 624 801.493 M 768.692 800.641 C 767.449 801.885, 801.060 834.106, 806 836.405 C 810.125 838.325, 811.999 838.477, 828.482 838.229 L 846.463 837.959 855.612 831.926 C 860.643 828.609, 867.494 823.969, 870.837 821.615 L 876.914 817.336 860.207 808.918 L 843.500 800.500 806.451 800.216 C 786.074 800.059, 769.083 800.251, 768.692 800.641 M 748.618 841.095 C 749.273 851.048, 750.176 853.408, 754.691 856.961 C 760.919 861.862, 815.299 897.034, 815.830 896.504 C 816.143 896.190, 814.847 894.434, 812.950 892.602 C 806.379 886.258, 752.394 835.492, 750.202 833.595 L 748 831.690 748.618 841.095 M 684.783 863.623 C 648.168 898.232, 647.925 898.472, 650.405 897.608 C 653.248 896.617, 707.050 861.182, 710.342 858.133 C 715.017 853.801, 717 848.859, 717 841.540 C 717 837.943, 716.565 835, 716.033 835 C 715.501 835, 701.438 847.881, 684.783 863.623 M 539.667 844.667 C 538.465 845.868, 538.931 857.839, 540.210 858.630 C 540.875 859.041, 563.037 859.266, 589.460 859.129 L 637.500 858.881 644.992 851.441 L 652.484 844 596.409 844 C 565.567 844, 540.033 844.300, 539.667 844.667 M 819.531 850.076 C 829.241 859.960, 825.011 859.285, 877.990 859.400 L 924.500 859.500 926.871 857.174 C 928.825 855.258, 929.149 854.149, 928.711 850.885 C 927.722 843.509, 931.934 844, 869.659 844 L 813.563 844 819.531 850.076 M 713.391 863.792 C 706.607 867.519, 637.923 913.474, 638.733 913.744 C 639.209 913.903, 660.052 909.043, 685.050 902.943 C 710.047 896.844, 732.525 891.859, 735 891.866 C 737.475 891.872, 759.518 896.825, 783.984 902.871 C 808.451 908.917, 828.600 913.733, 828.761 913.572 C 829.511 912.822, 752.156 862.561, 749.666 862.181 C 747.411 861.837, 745.981 862.561, 742.666 865.726 C 737.708 870.461, 734.055 873, 732.203 873 C 731.460 873, 728.257 870.525, 725.085 867.500 C 721.914 864.475, 718.685 862.019, 717.910 862.042 C 717.134 862.065, 715.101 862.852, 713.391 863.792 M 590.200 866.200 C 589.372 867.028, 589 872.118, 589 882.633 C 589 896.987, 589.115 897.902, 591 898.500 C 592.100 898.849, 593.878 898.856, 594.951 898.516 C 596.732 897.950, 626 866.896, 626 865.572 C 626 864.366, 591.427 864.973, 590.200 866.200 M 838.519 867.913 C 855.345 884.354, 869.792 897.106, 872.667 898.055 C 878.551 899.997, 879 898.865, 879 882.078 C 879 871.995, 878.624 867.024, 877.800 866.200 C 876.945 865.345, 870.704 865, 856.069 865 L 835.538 865 838.519 867.913 M 425 923.741 C 425 948.742, 425.314 957.914, 426.200 958.800 C 427.095 959.695, 438.096 960, 469.533 960 C 492.707 960, 511.949 959.718, 512.294 959.373 C 513.107 958.559, 493.145 936.143, 487.123 931.108 C 484.580 928.981, 478 924.413, 472.500 920.956 C 467 917.499, 454.625 909.428, 445 903.020 C 435.375 896.611, 426.938 891.034, 426.250 890.625 C 425.260 890.037, 425 896.924, 425 923.741 M 1034.479 895.129 C 1030.640 897.950, 1018.500 906.231, 1007.500 913.532 C 984.174 929.013, 973.995 937.004, 964.086 947.615 C 952.575 959.941, 948.832 958.590, 996.796 959.414 C 1019.733 959.807, 1039.287 959.827, 1040.250 959.458 C 1041.870 958.836, 1042 956.226, 1042 924.393 C 1042 905.477, 1041.878 890, 1041.729 890 C 1041.579 890, 1038.317 892.308, 1034.479 895.129 M 718 900.477 C 713.875 901.265, 706.181 903.242, 700.903 904.870 C 695.624 906.498, 682.884 909.781, 672.592 912.165 L 653.879 916.500 693.940 916.761 C 715.973 916.905, 752.112 916.905, 774.250 916.761 L 814.500 916.500 804.500 914.190 C 799 912.920, 788.650 910.280, 781.500 908.323 C 774.350 906.366, 764.450 903.656, 759.500 902.300 C 748.078 899.171, 729.183 898.341, 718 900.477 M 553.500 912.114 C 519.231 918.797, 518.600 918.934, 519.229 919.563 C 519.945 920.278, 558.767 930, 560.909 930 C 562.653 930, 584.831 907.431, 583.894 906.609 C 583.677 906.419, 570 908.896, 553.500 912.114 M 882 906.766 C 882 908.200, 904.524 930, 906.016 930.009 C 907.585 930.019, 946.437 921.260, 949 920.318 C 951.469 919.411, 947.456 918.456, 914.224 912.039 C 879.257 905.287, 882 905.736, 882 906.766 M 593.563 950.095 C 553.833 987.720, 555.487 986.300, 550.632 986.948 L 546.500 987.500 546.223 1001.750 C 546.070 1009.587, 546.124 1016, 546.342 1016 C 547.217 1016, 621.553 983.796, 622.265 983.109 C 622.686 982.702, 622.911 968.942, 622.765 952.530 L 622.500 922.690 593.563 950.095 M 630.200 925.200 C 629.305 926.095, 629 937.117, 629 968.629 C 629 1005.685, 629.192 1011.050, 630.571 1012.429 C 631.980 1013.837, 642.770 1014, 734.371 1014 C 812.549 1014, 836.882 1013.718, 837.800 1012.800 C 839.526 1011.074, 839.526 926.926, 837.800 925.200 C 836.059 923.459, 631.941 923.459, 630.200 925.200 M 845.015 951.167 C 845.024 966.200, 845.392 979.069, 845.834 979.765 C 846.458 980.749, 853.218 980.971, 876.203 980.765 L 905.769 980.500 876.237 952.500 C 859.995 937.100, 846.322 924.350, 845.853 924.167 C 845.384 923.983, 845.007 936.133, 845.015 951.167 M 464.721 965.750 L 425.942 966.024 425.038 968.401 C 424.541 969.708, 424.447 972.965, 424.829 975.639 L 425.524 980.500 473.776 980.760 L 522.027 981.019 521.374 976.760 C 520.013 967.871, 516.265 964.735, 507.601 965.238 C 505.345 965.369, 486.049 965.599, 464.721 965.750 M 952 965.965 C 948.948 966.721, 946.938 970.618, 946.688 976.266 L 946.500 980.500 993.169 980.760 C 1046.773 981.058, 1043.726 981.563, 1042.544 972.573 C 1042.177 969.783, 1041.435 967.053, 1040.894 966.506 C 1039.814 965.412, 956.285 964.904, 952 965.965 M 856.018 987.750 C 856.031 988.289, 911.105 1012.417, 920.120 1015.833 C 921.526 1016.366, 921.216 989.616, 919.800 988.200 C 918.447 986.847, 855.986 986.406, 856.018 987.750 M 586.500 1005.193 C 567.250 1013.475, 506.050 1039.814, 450.500 1063.722 C 394.950 1087.631, 347.836 1107.430, 345.802 1107.721 C 342.798 1108.150, 336.967 1106.338, 314.711 1098.061 C 299.645 1092.457, 285.885 1087, 284.134 1085.935 C 280.699 1083.846, 279 1080.557, 279 1075.994 C 279 1074.412, 278.634 1072.892, 278.187 1072.615 C 277.102 1071.945, 271 1084.422, 271 1087.311 C 271 1090.129, 275.755 1094.736, 291.500 1107.174 C 308.467 1120.576, 314.191 1126.066, 321.746 1136.183 C 325.567 1141.300, 329.317 1145.293, 330.607 1145.616 C 332.190 1146.014, 353.090 1136.997, 402.172 1114.742 C 440.302 1097.453, 505.552 1067.871, 547.172 1049.005 C 607.384 1021.711, 622.960 1014.274, 623.409 1012.601 C 623.719 1011.446, 623.979 1005.888, 623.986 1000.250 C 623.996 992.674, 623.674 990.017, 622.750 990.067 C 622.063 990.104, 605.750 996.911, 586.500 1005.193 M 845 1000.811 C 845 1006.875, 845.281 1012.569, 845.625 1013.465 C 845.968 1014.360, 848.331 1016.142, 850.875 1017.425 C 853.419 1018.708, 909.725 1044.293, 976 1074.279 C 1042.275 1104.266, 1105.136 1132.726, 1115.691 1137.524 C 1129.442 1143.774, 1135.536 1146.072, 1137.191 1145.629 C 1138.461 1145.289, 1141.056 1142.704, 1142.958 1139.885 C 1149.012 1130.908, 1159.632 1120.479, 1177.309 1106.152 C 1186.764 1098.488, 1195.326 1091.303, 1196.336 1090.185 C 1198.133 1088.196, 1198.067 1087.949, 1193.336 1078.826 L 1188.500 1069.500 1188.207 1076.116 C 1187.973 1081.423, 1187.478 1083.135, 1185.707 1084.774 C 1184.493 1085.897, 1174.050 1090.285, 1162.500 1094.524 C 1150.950 1098.764, 1138.226 1103.530, 1134.224 1105.116 C 1130.222 1106.702, 1125.434 1108, 1123.585 1108 C 1121.356 1108, 1074.196 1088.222, 983.861 1049.404 C 908.862 1017.176, 846.938 990.578, 846.250 990.297 C 845.295 989.907, 845 992.385, 845 1000.811 M 343 1027.438 C 343 1048.752, 343.380 1061.842, 344.035 1063.066 C 345.029 1064.922, 346.495 1065, 380.476 1065 C 399.949 1065, 416.121 1064.613, 416.414 1064.139 C 416.836 1063.456, 370.977 1019.345, 347.750 998.092 L 343 993.745 343 1027.438 M 1086.285 1029.413 L 1049.071 1064.500 1085.237 1064.763 C 1114.020 1064.972, 1121.671 1064.758, 1122.715 1063.714 C 1123.757 1062.672, 1123.972 1055.392, 1123.763 1028.364 L 1123.500 994.327 1086.285 1029.413 M 468.250 1029.763 C 433.462 1035.554, 405.008 1040.564, 405.017 1040.896 C 405.026 1041.228, 410.349 1047.067, 416.846 1053.872 C 426.866 1064.367, 428.989 1066.138, 430.847 1065.549 C 434.915 1064.257, 535.492 1020.758, 536.450 1019.875 C 538.209 1018.255, 531.823 1019.181, 468.250 1029.763 M 930.550 1019.888 C 932.027 1021.267, 1036.564 1066.009, 1038.120 1065.928 C 1039.329 1065.864, 1060.099 1043.213, 1060.748 1041.250 C 1060.953 1040.631, 933.560 1018.817, 930.550 1018.956 C 929.950 1018.984, 929.950 1019.327, 930.550 1019.888 M 641.550 1020.922 C 642.693 1022.032, 731.895 1078.022, 733.501 1078.639 C 734.372 1078.973, 825.539 1022.794, 827.807 1020.527 C 828.096 1020.237, 786.093 1020, 734.467 1020 C 677.170 1020, 640.970 1020.359, 641.550 1020.922 M 616 1024.336 C 612.975 1025.593, 609.238 1027.295, 607.696 1028.117 L 604.892 1029.612 604.972 1134.485 C 605.029 1208.952, 605.370 1239.741, 606.149 1240.679 C 607.436 1242.230, 619.670 1242.494, 622 1241.021 C 623.318 1240.188, 623.500 1226.907, 623.500 1131.370 C 623.500 1059.773, 623.159 1022.562, 622.500 1022.358 C 621.950 1022.189, 619.025 1023.079, 616 1024.336 M 629.500 1031.294 C 629.500 1038.150, 629.922 1041.224, 631.113 1043.045 C 632 1044.401, 641.450 1050.888, 652.113 1057.460 C 662.776 1064.033, 684.887 1077.868, 701.249 1088.205 C 723.505 1102.266, 731.787 1107, 734.130 1107 C 736.504 1107, 748.699 1099.846, 784.452 1077.483 C 810.405 1061.249, 833.184 1046.375, 835.070 1044.429 C 838.414 1040.981, 838.509 1040.655, 838.847 1031.446 C 839.091 1024.769, 838.854 1022, 838.038 1022 C 837.402 1022, 814.522 1035.990, 787.191 1053.088 C 752.281 1074.929, 736.602 1084.207, 734.482 1084.279 C 732.158 1084.359, 720.004 1077.208, 681.646 1053.192 C 654.246 1036.036, 631.304 1022.002, 630.664 1022.004 C 629.863 1022.007, 629.500 1024.900, 629.500 1031.294 M 845 1130.309 C 845 1216.304, 845.262 1238.976, 846.270 1240.355 C 847.328 1241.802, 848.875 1242.043, 855.520 1241.796 L 863.500 1241.500 863.737 1136.500 C 863.868 1078.750, 863.643 1031.005, 863.237 1030.401 C 862.561 1029.392, 847.062 1022, 845.624 1022 C 845.281 1022, 845 1070.739, 845 1130.309 M 568 1045.846 C 553.975 1052.299, 522.552 1066.562, 498.171 1077.540 C 471.283 1089.647, 453.447 1098.225, 452.837 1099.342 C 451.481 1101.826, 451.562 1178.962, 452.922 1180.322 C 455.562 1182.962, 459.699 1175.551, 463.426 1161.500 C 470.488 1134.878, 483.741 1120.066, 505.460 1114.522 C 513.392 1112.496, 535.277 1112.506, 543.897 1114.537 C 553.918 1116.900, 563.202 1122.323, 570.085 1129.834 C 577.324 1137.734, 581.900 1146.789, 586.086 1161.500 C 589.563 1173.717, 590.831 1176.632, 593.860 1179.374 C 598.966 1183.994, 598.845 1185.672, 598.960 1108.728 C 599.019 1069.463, 598.779 1036.586, 598.426 1035.669 C 598.074 1034.751, 596.822 1034.025, 595.643 1034.056 C 594.464 1034.087, 582.025 1039.392, 568 1045.846 M 870 1107.500 C 870 1180.158, 870.023 1181, 871.986 1181 C 874.874 1181, 878.883 1174.322, 881.112 1165.796 C 886.060 1146.877, 890.882 1137.103, 899.509 1128.500 C 910.697 1117.345, 923.251 1112.843, 943.500 1112.727 C 957.383 1112.648, 964.802 1114.213, 975.632 1119.506 C 989.379 1126.226, 1000.064 1141.316, 1005.013 1161 C 1008.461 1174.713, 1012.215 1181.622, 1015.529 1180.351 C 1016.789 1179.867, 1017 1174.209, 1017 1140.949 L 1017 1102.112 1014.750 1099.542 C 1013.271 1097.853, 999.310 1091.024, 974 1079.608 C 952.825 1070.058, 921.414 1055.889, 904.199 1048.122 C 886.983 1040.355, 872.245 1034, 871.449 1034 C 870.197 1034, 870 1043.992, 870 1107.500 M 437.543 1105.124 C 433.725 1106.753, 430.017 1108.571, 429.301 1109.165 C 428.257 1110.032, 428 1123.261, 428 1176.122 L 428 1242 435.418 1242 C 439.498 1242, 443.548 1241.727, 444.418 1241.393 C 445.839 1240.848, 445.998 1233.867, 445.985 1172.643 C 445.976 1135.164, 445.635 1103.974, 445.226 1103.332 C 444.691 1102.490, 442.543 1102.991, 437.543 1105.124 M 1023.470 1104.049 C 1023.114 1104.625, 1022.815 1135.235, 1022.806 1172.069 C 1022.793 1223.548, 1023.074 1239.384, 1024.017 1240.521 C 1025.554 1242.373, 1038.007 1242.593, 1039.800 1240.800 C 1041.706 1238.894, 1041.510 1116.881, 1039.595 1113.200 C 1037.499 1109.171, 1033.959 1106.250, 1029.096 1104.534 C 1023.928 1102.711, 1024.278 1102.741, 1023.470 1104.049 M 611.557 1251.223 C 610.701 1252.445, 610 1254.326, 610 1255.402 C 610 1256.478, 608.608 1262.919, 606.907 1269.716 C 605.206 1276.512, 604.067 1282.731, 604.376 1283.536 C 604.865 1284.811, 621.614 1285, 733.910 1285 C 804.844 1285, 863.102 1284.645, 863.370 1284.210 C 863.959 1283.258, 858.641 1251.846, 857.608 1250.175 C 857.058 1249.285, 827.301 1249, 734.998 1249 L 613.113 1249 611.557 1251.223 M 497.162 1295.305 C 496.375 1296.253, 496.502 1297.963, 497.628 1301.555 C 499.796 1308.473, 499.770 1330.722, 497.580 1342.500 C 496.660 1347.450, 494.599 1356.225, 493 1362 C 488.121 1379.626, 486.701 1389.262, 486.737 1404.500 C 486.785 1424.594, 491.432 1444.187, 499.780 1459.500 L 502.506 1464.500 524.753 1464.769 C 536.989 1464.917, 547 1464.762, 547 1464.424 C 547 1464.085, 546.074 1462.508, 544.941 1460.918 C 541.257 1455.743, 535.203 1441.686, 533.102 1433.429 C 526.417 1407.149, 528.222 1382.618, 539.685 1344 C 544.681 1327.170, 543.684 1302.632, 537.745 1296.250 C 535.718 1294.071, 535.057 1294, 516.948 1294 C 502.784 1294, 497.982 1294.317, 497.162 1295.305 M 545.521 1294.966 C 545.193 1295.497, 545.729 1298.534, 546.712 1301.716 C 548.079 1306.138, 548.481 1310.679, 548.419 1321 C 548.350 1332.500, 547.938 1335.908, 545.638 1344 C 536.233 1377.079, 534.409 1388.435, 535.293 1408.407 C 536.008 1424.559, 539.162 1437.662, 545.066 1449.010 C 547.373 1453.445, 549.446 1456.888, 549.672 1456.661 C 550.163 1456.171, 571.162 1365.995, 574.239 1351.167 C 576.132 1342.044, 576.250 1339.935, 575.251 1333.167 C 573.793 1323.294, 571.530 1316.452, 566.435 1306.514 C 561.483 1296.852, 557.944 1294, 550.911 1294 C 548.275 1294, 545.849 1294.435, 545.521 1294.966 M 602.292 1295.508 C 600.834 1296.529, 599.778 1298.871, 599.024 1302.758 C 598.411 1305.916, 596.957 1312.598, 595.792 1317.606 C 594.628 1322.615, 593.960 1327.452, 594.306 1328.356 C 594.887 1329.870, 605.822 1330, 732.846 1330 C 846.265 1330, 870.951 1329.764, 871.857 1328.672 C 872.622 1327.751, 872.658 1326.297, 871.976 1323.922 C 871.435 1322.040, 869.833 1315.325, 868.416 1309 C 866.999 1302.675, 865.131 1296.713, 864.265 1295.750 C 862.780 1294.101, 855.275 1294, 733.568 1294 C 620.097 1294, 604.184 1294.183, 602.292 1295.508 M 910.117 1295.631 C 906.171 1298.395, 898.150 1311.799, 895.586 1319.916 C 890.633 1335.595, 891.294 1347.051, 898.996 1379 C 901.184 1388.075, 906.236 1409.338, 910.223 1426.250 C 914.210 1443.162, 917.756 1457, 918.103 1457 C 919.388 1457, 924.248 1448.579, 926.678 1442.143 C 934.882 1420.407, 935.857 1393.138, 929.329 1368 C 927.972 1362.775, 925.495 1353.325, 923.825 1347 C 918.971 1328.624, 918.855 1307.880, 923.538 1295.750 C 924.135 1294.205, 923.524 1294, 918.329 1294 C 914.508 1294, 911.629 1294.572, 910.117 1295.631 M 931.075 1296.750 C 927.678 1299.519, 925.657 1308.919, 925.752 1321.500 C 925.822 1330.563, 926.404 1334.614, 929.057 1344.500 C 937.906 1377.472, 939.459 1387.764, 938.712 1408.494 C 938.048 1426.925, 935.469 1437.360, 927.527 1453.750 L 922.076 1465 940.788 1465.200 C 964.687 1465.455, 964.990 1465.438, 966.621 1463.807 C 968.677 1461.751, 975.798 1443.781, 978.829 1433 C 981.285 1424.266, 981.496 1422.049, 981.454 1405.500 C 981.414 1390.347, 981.048 1385.997, 979.136 1378 C 969.126 1336.136, 967.193 1319.990, 970.396 1305 C 971.277 1300.875, 971.999 1296.938, 971.999 1296.250 C 972 1295.293, 967.456 1295, 952.611 1295 C 935.629 1295, 932.955 1295.217, 931.075 1296.750 M 591.661 1340.259 C 590.539 1341.079, 589.235 1344.999, 587.919 1351.509 C 586.808 1357.004, 585.180 1363.814, 584.301 1366.642 C 583.422 1369.470, 582.981 1372.507, 583.320 1373.392 C 583.883 1374.859, 596.892 1374.999, 732.219 1374.985 C 820.621 1374.976, 881.087 1374.598, 881.953 1374.050 C 883.196 1373.264, 882.942 1371.194, 880.203 1359.739 C 878.441 1352.373, 877 1345.593, 877 1344.673 C 877 1343.753, 876.100 1342.100, 875 1341 C 873.019 1339.019, 871.667 1339, 733.191 1339 C 622.393 1339, 593.025 1339.261, 591.661 1340.259 M 196.236 1358.667 C 192.791 1360.054, 240.269 1405.430, 270.340 1429.490 L 280.181 1437.364 372.333 1437.098 C 441.181 1436.900, 464.674 1436.538, 465.232 1435.666 C 465.643 1435.025, 465.700 1433.825, 465.359 1433 C 465.018 1432.175, 464.539 1422.950, 464.295 1412.500 C 463.843 1393.191, 464.557 1386.302, 469.144 1365.694 C 470.255 1360.703, 470.230 1359.757, 468.968 1358.959 C 467.452 1358, 198.607 1357.712, 196.236 1358.667 M 999.537 1359.605 C 998.655 1360.488, 998.160 1361.951, 998.437 1362.855 C 1003.253 1378.527, 1005.504 1397.722, 1004.495 1414.500 C 1004.065 1421.650, 1003.665 1429.525, 1003.607 1432 L 1003.500 1436.500 1095.500 1437 L 1187.500 1437.500 1199.492 1428.030 C 1221.305 1410.806, 1248.532 1385.866, 1264.860 1368.154 L 1274.220 1358 1137.681 1358 C 1013.664 1358, 1000.996 1358.147, 999.537 1359.605 M 581.262 1385.529 C 579.982 1386.426, 578.826 1388.595, 578.466 1390.779 C 578.129 1392.825, 576.732 1399.132, 575.363 1404.793 C 573.993 1410.455, 573.014 1416.080, 573.186 1417.293 L 573.500 1419.500 732.780 1419.753 C 880.282 1419.987, 892.107 1419.884, 892.696 1418.349 C 893.046 1417.438, 892.869 1414.624, 892.303 1412.096 C 887.638 1391.260, 886.570 1387.287, 885.224 1385.750 C 883.776 1384.098, 875.290 1384, 733.568 1384 C 600.489 1384, 583.197 1384.174, 581.262 1385.529 M 570.132 1430.868 C 569.027 1431.973, 567.988 1434.936, 567.591 1438.118 C 567.221 1441.078, 565.829 1447.775, 564.498 1453 C 562.447 1461.053, 562.288 1462.710, 563.451 1463.876 C 564.607 1465.035, 591.512 1465.228, 733.639 1465.099 C 839.732 1465.003, 902.810 1464.590, 903.412 1463.988 C 904.023 1463.377, 903.401 1459.129, 901.696 1452.265 C 900.225 1446.344, 898.741 1439.809, 898.398 1437.741 C 898.055 1435.674, 896.892 1432.862, 895.814 1431.491 L 893.855 1429 732.927 1429 C 577.114 1429, 571.941 1429.059, 570.132 1430.868" stroke="none" fill="#fbb314" fill-rule="evenodd"/></svg>